<?xml version="1.0" encoding="utf-8"?>
<!-- Generator: Adobe Illustrator 23.0.5, SVG Export Plug-In . SVG Version: 6.00 Build 0)  -->
<svg version="1.1" id="Capa_1" xmlns:serif="http://www.serif.com/"
	 xmlns="http://www.w3.org/2000/svg" xmlns:xlink="http://www.w3.org/1999/xlink" x="0px" y="0px" viewBox="0 0 24 24"
	 style="enable-background:new 0 0 24 24;" xml:space="preserve">
<style type="text/css">
	.st0{fill:#393E41;}
	.st1{fill:#E8E8E8;}
	.st2{fill:#C9C9C9;}
	.st3{fill:#F6F7EB;}
	.st4{fill:#D4D4D4;}
	.st5{fill:#FFFFFF;}
</style>
<g transform="matrix(0.666667,0,0,0.666667,0,0)">
	<path class="st0" d="M17.6,31L17.6,31l0.7-0.1l0.1,0c0,0,0,0.1,0,0.1c0,0.1,0,0.1,0,0.2l-0.8,0L17.6,31z"/>
</g>
<g transform="matrix(0.666667,0,0,0.666667,3.62451,2.34931)">
	<path class="st1" d="M-0.9,24.5c-0.2-0.2-0.3-0.5-0.5-0.7c-0.3-0.4-0.5-0.8-0.7-1.3c-0.4-0.7-0.7-1.4-0.9-2.2
		c-0.4-1.1-0.6-2.3-0.8-3.5C-3.9,16.1-4,15.3-4,14.6c0-0.7,0.1-1.3,0.1-2c0.3-2.7,1.3-5.2,2.8-7.4c0.2-0.3,0.4-0.6,0.6-0.9
		c0.9-1.2,2-2.2,3.1-3.1c1.7-1.3,3.6-2.3,5.6-2.9c2.2-0.6,4.5-0.7,6.7-0.4C15.6-2.1,16.3-2,17-1.8c3.2,0.8,6.1,2.6,8.3,5.1
		c0.3,0.3,0.5,0.6,0.7,0.9c1,1.3,1.9,2.8,2.5,4.4c0.3,0.8,0.5,1.6,0.7,2.4c0.2,0.7,0.3,1.4,0.4,2.2c0.1,1.2,0.1,2.5-0.1,3.7
		c-0.3,2.2-1.1,4.3-2.1,6.3c-0.3,0.6-0.7,1.3-1.1,1.8c-0.2,0.3-0.5,0.6-0.7,0.9c-1.1,1.3-2.4,2.4-3.9,3.4c-0.6,0.4-1.1,0.7-1.7,0.9
		c-1.1,0.5-2.3,0.9-3.5,1.2c-1.5,0.3-3.2,0.4-4.7,0.3c-0.9-0.1-1.8-0.2-2.6-0.4c-2.5-0.6-4.9-1.8-6.9-3.4c-0.4-0.3-0.8-0.7-1.2-1.1
		C0.3,26.1-0.4,25.3-0.9,24.5z"/>
</g>
<g transform="matrix(0.604344,0,0,0.604344,27.5508,26.3526)">
	<path d="M-39.2-13.7c-0.2-0.2-0.3-0.5-0.5-0.7c-0.3-0.4-0.5-0.8-0.7-1.3c-0.4-0.7-0.7-1.4-0.9-2.2c-0.4-1.1-0.6-2.3-0.8-3.5
		c-0.1-0.8-0.2-1.5-0.2-2.3c0-0.7,0.1-1.3,0.1-2c0.3-2.7,1.3-5.2,2.8-7.4c0.2-0.3,0.4-0.6,0.6-0.9c0.9-1.2,2-2.2,3.1-3.1
		c1.7-1.3,3.6-2.3,5.6-2.9c2.2-0.6,4.5-0.7,6.7-0.4c0.7,0.1,1.4,0.2,2.1,0.4c3.2,0.8,6.1,2.6,8.3,5.1c0.3,0.3,0.5,0.6,0.7,0.9
		c1,1.3,1.9,2.8,2.5,4.4c0.3,0.8,0.5,1.6,0.7,2.4c0.2,0.7,0.3,1.4,0.4,2.2c0.1,1.2,0.1,2.5-0.1,3.7c-0.3,2.2-1.1,4.3-2.1,6.3
		c-0.3,0.6-0.7,1.3-1.1,1.8c-0.2,0.3-0.5,0.6-0.7,0.9c-1.1,1.3-2.4,2.4-3.9,3.4c-0.6,0.4-1.1,0.7-1.7,0.9c-1.1,0.5-2.3,0.9-3.5,1.2
		c-1.5,0.3-3.2,0.4-4.7,0.3c-0.9-0.1-1.8-0.2-2.6-0.4c-2.5-0.6-4.9-1.8-6.9-3.4c-0.4-0.3-0.8-0.7-1.2-1.1
		C-38-12.1-38.7-12.9-39.2-13.7z"/>
</g>
<path class="st2" d="M15.7,19c-0.1-0.1-0.3-0.2-0.4-0.3c-0.6-0.3-1.1-0.7-1.6-1.2c-0.2-0.2-0.3-0.3-0.5-0.5
	c-0.1-0.1-0.2-0.2-0.3-0.3c0,0-0.1-0.1-0.1-0.1l0,0c-0.1,0-0.3,0-0.4,0c0-0.1,0-0.2,0-0.3c0-0.3,0-0.7,0-1c0-0.1,0-0.3,0-0.4
	c0-0.1,0.1-0.2,0.2-0.2c0.1-0.1,0.1-0.2,0.2-0.2c0.1-0.1,0.2-0.3,0.2-0.4l0,0c-0.1,0.1-0.2,0.3-0.2,0.4c-0.1,0.1-0.1,0.2-0.2,0.2
	c-0.1,0.1-0.1,0.1-0.2,0.2c0,0-0.1,0-0.1,0c-0.1,0-0.2,0.1-0.2,0.2c-0.2,0.2-0.4,0.3-0.6,0.4c-0.7,0.4-1.5,0.5-2.3,0.2
	c-0.3-0.1-0.5-0.3-0.8-0.5c-0.1-0.1-0.2-0.1-0.3-0.2C7.9,15,7.8,15,7.7,14.9l0,0l0,0.4c0,0.3,0,0.6-0.1,0.9c0,0.1,0,0.3,0,0.5
	c-0.1,0-0.4,0-0.5,0C7,16.8,6.9,16.9,6.8,17c-0.1,0.1-0.2,0.2-0.3,0.3c-0.2,0.2-0.4,0.3-0.5,0.5c-0.3,0.2-0.6,0.4-0.9,0.6
	c0.1,0.1,0.3,0.3,0.4,0.4c0.2,0.2,0.4,0.4,0.7,0.6c1.1,0.9,2.5,1.6,3.9,1.9c0.5,0.1,1,0.2,1.5,0.2c0.9,0.1,1.8,0,2.7-0.2
	c0.7-0.1,1.3-0.4,2-0.7c0.3-0.2,0.7-0.3,1-0.5c0.1-0.1,0.2-0.2,0.3-0.2l-1.6-1L15.7,19z"/>
<g transform="matrix(0.666667,0,0,0.666667,0,0)">
	<path class="st3" d="M11.6,22.4L11.6,22.4c0.2,0,0.3,0.2,0.4,0.3c0.1,0.1,0.3,0.2,0.4,0.3c0.4,0.3,0.8,0.5,1.2,0.7
		c1.1,0.5,2.3,0.3,3.4-0.3c0.3-0.2,0.7-0.4,1-0.6c0.1-0.1,0.2-0.2,0.3-0.3c0,0,0.1,0,0.1,0c0,0.2,0,0.5,0,0.7c0,0.5,0,1,0.1,1.5
		c0,0.1,0,0.3,0,0.5c0,0.1,0,0.3,0.1,0.4c0,0.1,0.1,0.2,0.1,0.3c-0.8,0.9-2.2,1.4-3.4,1.5c-1.1,0.1-2.2-0.2-3.1-0.7
		c-0.3-0.1-0.5-0.3-0.7-0.5c-0.1-0.1-0.1-0.1-0.2-0.2l0.2-0.7c0.1-0.2,0.1-0.5,0.1-0.7c0-0.5,0.1-0.9,0.1-1.4L11.6,22.4z"/>
</g>
<g transform="matrix(0.666667,0,0,0.666667,0,0)">
	<path class="st4" d="M11.6,22.4L11.6,22.4c0.2,0,0.3,0.2,0.4,0.3c0.1,0.1,0.3,0.2,0.4,0.3c0.4,0.3,0.8,0.5,1.2,0.7
		c1.1,0.5,2.3,0.3,3.4-0.3c0.3-0.2,0.7-0.4,1-0.6c0.1-0.1,0.2-0.2,0.3-0.3c0,0,0.1,0,0.1,0c0,0.2,0,0.5,0,0.7c0,0,0-0.1,0-0.1
		c-0.2,0.1-0.3,0.3-0.5,0.4c-0.5,0.5-1.1,0.8-1.8,1.1c-0.6,0.2-1.4,0.3-2,0.1c-0.7-0.2-1.2-0.6-1.8-1c-0.1-0.1-0.3-0.2-0.4-0.3
		c-0.1-0.1-0.2-0.2-0.3-0.3l0,0L11.6,22.4z"/>
</g>
<path class="st5" d="M10.3,4.1C9.7,4,9.1,4.2,8.6,4.3C8,4.5,7.4,4.9,6.9,5.2C6.1,5.9,5.5,6.6,5.4,7.6c-0.1,1.2,0,2.5,0.3,3.7
	C6,13,7,14.5,8.4,15.5c1,0.7,2.3,0.6,3.3-0.1c1.1-0.7,1.6-1.7,2.1-2.9c0.7-1.7,1.1-3.7,0.6-5.5C13.7,5.3,12,4.4,10.3,4.1z"/>
<polygon class="st5" points="18.4,9.5 18.4,8.8 18.1,8.8 18.1,9.5 17.7,9.5 17.7,9.9 18.9,9.9 18.9,9.5 "/>
<polygon class="st5" points="20,12.8 20,12 19.7,12 19.7,12.8 19.3,12.8 19.3,13.1 20.5,13.1 20.5,12.8 "/>
<path class="st5" d="M18.9,12.4v-2.1h-1.3v2.1h0.3v7.3c0.2-0.2,0.5-0.4,0.7-0.6v-6.7H18.9z"/>
<path class="st5" d="M20.5,15.6v-2.1h-1.3v2.1h0.3v2.4c0-0.1,0.1-0.1,0.1-0.2c0.2-0.3,0.4-0.5,0.5-0.8v-1.4H20.5z"/>
<polygon class="st1" points="18.4,18.8 18,19.2 18,12.4 18.4,12.4 "/>
<polygon class="st1" points="20.1,17.2 19.7,17.7 19.7,15.7 20.1,15.7 "/>
</svg>
