<?xml version="1.0" encoding="utf-8"?>
<!-- Generator: Adobe Illustrator 23.0.5, SVG Export Plug-In . SVG Version: 6.00 Build 0)  -->
<svg version="1.1" id="Capa_1" xmlns:serif="http://www.serif.com/"
	 xmlns="http://www.w3.org/2000/svg" xmlns:xlink="http://www.w3.org/1999/xlink" x="0px" y="0px" viewBox="0 0 24 24"
	 style="enable-background:new 0 0 24 24;" xml:space="preserve">
<style type="text/css">
	.st0{fill:#393E41;}
	.st1{fill:#E8E8E8;}
	.st2{fill:#797776;}
	.st3{fill:#F6F7EB;}
	.st4{fill:#FFFFFF;}
	.st5{fill-rule:evenodd;clip-rule:evenodd;fill:#F6F7EB;}
	.st6{fill-rule:evenodd;clip-rule:evenodd;fill:#FFFFFF;}
</style>
<g transform="matrix(0.666667,0,0,0.666667,0,0)">
	<path class="st0" d="M17.6,31L17.6,31l0.7-0.1l0.1,0c0,0,0,0.1,0,0.1c0,0.1,0,0.1,0,0.2l-0.8,0L17.6,31z"/>
</g>
<g transform="matrix(0.666667,0,0,0.666667,3.62451,2.34931)">
	<path class="st1" d="M-0.9,24.5c-0.2-0.2-0.3-0.5-0.5-0.7c-0.3-0.4-0.5-0.8-0.7-1.3c-0.4-0.7-0.7-1.4-0.9-2.2
		c-0.4-1.1-0.6-2.3-0.8-3.5C-3.9,16.1-4,15.3-4,14.6c0-0.7,0.1-1.3,0.1-2c0.3-2.7,1.3-5.2,2.8-7.4c0.2-0.3,0.4-0.6,0.6-0.9
		c0.9-1.2,2-2.2,3.1-3.1c1.7-1.3,3.6-2.3,5.6-2.9c2.2-0.6,4.5-0.7,6.7-0.4C15.6-2.1,16.3-2,17-1.8c3.2,0.8,6.1,2.6,8.3,5.1
		c0.3,0.3,0.5,0.6,0.7,0.9c1,1.3,1.9,2.8,2.5,4.4c0.3,0.8,0.5,1.6,0.7,2.4c0.2,0.7,0.3,1.4,0.4,2.2c0.1,1.2,0.1,2.5-0.1,3.7
		c-0.3,2.2-1.1,4.3-2.1,6.3c-0.3,0.6-0.7,1.3-1.1,1.8c-0.2,0.3-0.5,0.6-0.7,0.9c-1.1,1.3-2.4,2.4-3.9,3.4c-0.6,0.4-1.1,0.7-1.7,0.9
		c-1.1,0.5-2.3,0.9-3.5,1.2c-1.5,0.3-3.2,0.4-4.7,0.3c-0.9-0.1-1.8-0.2-2.6-0.4c-2.5-0.6-4.9-1.8-6.9-3.4c-0.4-0.3-0.8-0.7-1.2-1.1
		C0.3,26.1-0.4,25.3-0.9,24.5z"/>
</g>
<g transform="matrix(0.604344,0,0,0.604344,27.5508,26.3526)">
	<path d="M-39.2-13.7c-0.2-0.2-0.3-0.5-0.5-0.7c-0.3-0.4-0.5-0.8-0.7-1.3c-0.4-0.7-0.7-1.4-0.9-2.2c-0.4-1.1-0.6-2.3-0.8-3.5
		c-0.1-0.8-0.2-1.5-0.2-2.3c0-0.7,0.1-1.3,0.1-2c0.3-2.7,1.3-5.2,2.8-7.4c0.2-0.3,0.4-0.6,0.6-0.9c0.9-1.2,2-2.2,3.1-3.1
		c1.7-1.3,3.6-2.3,5.6-2.9c2.2-0.6,4.5-0.7,6.7-0.4c0.7,0.1,1.4,0.2,2.1,0.4c3.2,0.8,6.1,2.6,8.3,5.1c0.3,0.3,0.5,0.6,0.7,0.9
		c1,1.3,1.9,2.8,2.5,4.4c0.3,0.8,0.5,1.6,0.7,2.4c0.2,0.7,0.3,1.4,0.4,2.2c0.1,1.2,0.1,2.5-0.1,3.7c-0.3,2.2-1.1,4.3-2.1,6.3
		c-0.3,0.6-0.7,1.3-1.1,1.8c-0.2,0.3-0.5,0.6-0.7,0.9c-1.1,1.3-2.4,2.4-3.9,3.4c-0.6,0.4-1.1,0.7-1.7,0.9c-1.1,0.5-2.3,0.9-3.5,1.2
		c-1.5,0.3-3.2,0.4-4.7,0.3c-0.9-0.1-1.8-0.2-2.6-0.4c-2.5-0.6-4.9-1.8-6.9-3.4c-0.4-0.3-0.8-0.7-1.2-1.1
		C-38-12.1-38.7-12.9-39.2-13.7z"/>
</g>
<g transform="matrix(0.666667,0,0,0.666667,0,0)">
	<path d="M17.6,31L17.6,31l0.7-0.1l0.1,0c0,0,0,0.1,0,0.1c-0.2,0-0.4,0-0.6,0L17.6,31z"/>
</g>
<g transform="matrix(0.666667,0,0,0.666667,0,0)">
	<path class="st2" d="M17.6,29.9c0-0.2,0-0.4,0-0.7c0-0.1,0-0.2,0-0.3l0,0.4l0.3,0c0,0,0,0.1,0,0.1c-0.1,0.1-0.2,0-0.3,0.2
		c0,0,0,0,0,0.1l-0.1,0C17.6,29.8,17.6,29.8,17.6,29.9z"/>
</g>
<g transform="matrix(0.666667,0,0,0.666667,0,0)">
	<path class="st3" d="M17.9,29.4c0.2,0,0.4,0,0.5,0l0,0c0,0.1,0,0.2,0,0.3c0,0.1,0,0.3,0,0.5c0,0.1,0,0.2,0,0.3l-0.8,0
		c0-0.1,0-0.2,0-0.3l0-0.3c0-0.1,0-0.1,0-0.2l0.1,0c0,0,0,0,0-0.1c0.1-0.2,0.2-0.1,0.3-0.2C17.9,29.5,17.9,29.4,17.9,29.4z"/>
</g>
<g transform="matrix(0.666667,0,0,0.666667,0,0)">
	<path class="st0" d="M17.9,29.4c0.2,0,0.4,0,0.5,0l0,0c0,0.1,0,0.2,0,0.3l-0.5,0l-0.3,0c0,0,0,0,0-0.1c0.1-0.2,0.2-0.1,0.3-0.2
		C17.9,29.5,17.9,29.4,17.9,29.4z"/>
</g>
<g transform="matrix(0.666667,0,0,0.666667,0,0)">
	<path class="st0" d="M18.4,30.2c0,0.1,0,0.2,0,0.3l-0.8,0c0-0.1,0-0.2,0-0.3L18.4,30.2z"/>
</g>
<g transform="matrix(0.666667,0,0,0.666667,0,0)">
	<path class="st4" d="M18,24.3c0.2,0,0.4,0,0.6,0.1c0.6,0.2,1.1,0.7,1.4,1.3c0.1,0.1,0.1,0.3,0.1,0.4c0,0.1,0,0.1,0.1,0.2l0,0
		c0,0.1,0,0.1,0,0.2c0,0.7,0,1.4-0.5,1.9c-0.3,0.3-0.6,0.4-1,0.6c0,0-0.1,0-0.1,0c0,0.1,0,0.2,0,0.4c-0.2,0-0.4,0-0.5,0l-0.3,0
		l0-0.4l0,0l-0.1,0c-0.4-0.1-0.7-0.2-0.9-0.5c0,0,0,0,0,0C16.1,28,16,27.4,16,26.8c0-0.7,0.1-1.3,0.6-1.8
		C16.9,24.6,17.4,24.3,18,24.3z"/>
</g>
<g transform="matrix(0.666667,0,0,0.666667,0,0)">
	<path d="M17.6,28.5c0.1,0,0.2,0,0.3,0c0.2,0,0.4,0,0.6-0.1l0,0.4c0,0-0.1,0-0.1,0c0,0.1,0,0.2,0,0.4c-0.2,0-0.4,0-0.5,0l-0.3,0
		l0-0.4l0,0l-0.1,0C17.5,28.8,17.5,28.7,17.6,28.5z"/>
</g>
<g transform="matrix(0.666667,0,0,0.666667,0,0)">
	<path class="st3" d="M17.6,29l0.8,0c0,0.1,0,0.2,0,0.4c-0.2,0-0.4,0-0.5,0l-0.3,0L17.6,29L17.6,29z"/>
</g>
<g transform="matrix(0.666667,0,0,0.666667,0,0)">
	<path class="st3" d="M8.2,11.9l0.5,0l0,0L8,15.5l0.5,0.3c0-0.3,0-0.8,0.3-1c0.3-0.3,1.4-0.5,1.8-0.6c0.2,0,0.5,0,0.6-0.2
		c0.1,0,0.2-0.1,0.3-0.1c0.3-0.1,0.6-0.1,0.8,0c0.1,0,0.2,0.1,0.3,0.1c0.1,0.1,0.3,0.2,0.4,0.3c0.5,0.4,0.7,0.8,0.9,1.4
		c0,0.2,0.1,0.4,0.1,0.6c0,0.1,0,0.2,0,0.3c0.1,1.1,0.3,2.3,0.4,3.4c0.1,0.5,0.1,1,0.2,1.5c0,0.3,0.1,0.7,0,1c0,0.3-0.1,0.5-0.2,0.7
		c-0.3,0.4-0.6,0.8-1,1c-0.7,0.3-1.6,0.2-2.3-0.1c-0.4-0.2-0.7-0.4-0.9-0.7c-0.1-0.2-0.2-0.4-0.3-0.6c-0.3,0-0.5,0-0.8,0
		c0,0-0.2,0-0.2,0c-0.1,0-0.1,0.1-0.2,0.2c-0.2,0-0.6-0.3-0.8-0.4c-0.2-0.2-0.3-0.4-0.4-0.6c-0.2-0.4-0.2-0.8-0.3-1.2
		C7.2,20,7.1,19.4,7,18.8c0-0.3-0.1-0.7-0.1-1c0-0.7,0.3-1.3,0.5-1.9c0.1-0.5,0.2-0.9,0.3-1.4c0.1-0.6,0.2-1.2,0.4-1.8
		C8.1,12.5,8.1,12.2,8.2,11.9C8.2,11.9,8.2,11.9,8.2,11.9z"/>
</g>
<g transform="matrix(0.666667,0,0,0.666667,0,0)">
	<path d="M11.3,23.7c-0.1,0-0.2-0.1-0.3-0.2c-0.2-0.2-0.4-0.3-0.5-0.6c-0.2-0.4-0.3-0.9-0.4-1.4c-0.1-0.3-0.2-0.7-0.2-1
		c-0.2-1-0.4-2-0.6-2.9C9.1,17.2,9,16.9,9,16.6c-0.1-0.5-0.2-1.1,0.1-1.5c0.2-0.2,0.4-0.3,0.7-0.3l0.1,0.5l0.9,5.2
		c0,0.4,0.1,0.9,0.2,1.3c0.1,0.4,0.1,0.8,0.2,1.2C11.2,23.2,11.2,23.4,11.3,23.7C11.3,23.6,11.3,23.6,11.3,23.7z"/>
</g>
<g transform="matrix(0.666667,0,0,0.666667,0,0)">
	<path d="M8.6,16.1C8.6,16.1,8.6,16.1,8.6,16.1c0,0.1,0.1,0.2,0.1,0.3c0,0.2,0.1,0.3,0.1,0.5c0,0.3,0.1,0.6,0.1,0.9
		c0.2,1.1,0.5,2.3,0.7,3.4c0.1,0.2,0.1,0.5,0.2,0.7c0.1,0.2,0.1,0.4,0.2,0.7c-0.1-0.1-0.1-0.1-0.2-0.2l0,0l-0.8,0
		c-0.1,0-0.1,0-0.2-0.1c-0.2-0.1-0.4-0.4-0.5-0.6c-0.3-0.8-0.5-1.7-0.6-2.5c-0.1-0.4-0.2-0.9-0.2-1.3c0-0.3,0.1-0.8,0.2-1.1
		C7.8,16.4,8.3,16.2,8.6,16.1z"/>
</g>
<g transform="matrix(0.666667,0,0,0.666667,0,0)">
	<path class="st5" d="M21.5,22.9c-0.1-0.2-0.1-0.4-0.1-0.6c0-0.2,0-0.5,0-0.7c0-0.3,0.1-0.7,0.1-1c0.2-1.4,0.4-2.8,0.6-4.2l0.1-0.8
		l0.1-0.2c0.1-0.5,0.4-0.8,0.7-1.1l0.1-0.1c0.3-0.2,0.7-0.4,1.1-0.4c0.2,0,0.5,0,0.7,0.1c0.1,0,0.1,0.1,0.2,0.1c0.1,0,0.3,0,0.4,0.1
		c0.3,0.1,0.5,0.1,0.7,0.2c0.4,0.1,0.9,0.2,1.2,0.5c0.3,0.3,0.2,0.6,0.2,1l0.5-0.3c0-0.1,0-0.2,0-0.3c0-0.2-0.1-0.4-0.1-0.5
		c-0.1-0.5-0.2-1-0.3-1.5c-0.1-0.4-0.2-0.8-0.3-1.2l-0.1-0.1c-0.1,0-0.3,0-0.4,0c-0.3,0-0.7,0-1,0c-0.1-0.1-0.1-0.2-0.2-0.3
		c-0.1-0.1-0.1-0.3-0.2-0.4c-0.1-0.2-0.3-0.5-0.4-0.7l0,0c-0.2,0-0.5-0.3-0.6-0.4c-0.5-0.4-1-0.7-1.5-1c-0.2-0.1-0.5-0.3-0.7-0.4
		c-0.3-0.1-0.7-0.3-1-0.4c-0.3-0.1-0.7-0.2-1.1-0.3c0,0-0.2,0-0.2,0c-0.2,0-0.5-0.1-0.7-0.1l-0.3,0c-0.6-0.1-1.2-0.1-1.8,0
		c-1.7,0.2-3.5,0.7-4.9,1.7c-0.2,0.2-0.4,0.3-0.6,0.5c-0.2,0.2-0.5,0.4-0.7,0.5c-0.1,0-0.1,0.1-0.2,0.1c-0.1,0.3-0.3,0.5-0.4,0.8
		c-0.1,0.2-0.2,0.5-0.3,0.7c-0.3,0-0.7,0-1,0c-0.1,0-0.3,0-0.4,0l0,0.1l-0.5,0l0-0.1c0.2-0.6,0.2-1.2,0.7-1.6
		C9,10.1,9.1,10.1,9.2,10c0.1,0,0.2-0.1,0.2-0.2c0-0.1,0.1-0.1,0.1-0.2c0.1-0.1,0.1-0.2,0.2-0.3c1.2-2,3.4-3.4,5.7-4
		C16.6,4.9,18,4.8,19.2,5c1.4,0.2,2.7,0.7,3.9,1.4C24.2,7,25.2,8,26,9c0.1,0.1,0.2,0.3,0.3,0.5c0,0.1,0.1,0.1,0.1,0.2
		c0,0,0,0.1,0,0.1c0,0,0.1,0.1,0.1,0.1c0.1,0.1,0.2,0.1,0.3,0.2c0.5,0.3,0.7,0.8,0.8,1.4c0,0.1,0.1,0.3,0.1,0.4
		c0.2,0.7,0.3,1.5,0.5,2.2c0.1,0.6,0.2,1.1,0.3,1.7c0.1,0.6,0.4,1.1,0.5,1.7c0,0.5,0,0.9-0.1,1.4c-0.1,0.9-0.3,1.7-0.6,2.6
		c-0.1,0.3-0.2,0.6-0.4,0.9c-0.2,0.3-0.5,0.5-0.8,0.6c-0.1,0-0.1,0-0.2,0c0,0-0.1-0.1-0.2-0.1c-0.1,0-0.2,0-0.3,0
		c-0.2,0-0.5,0-0.7,0c-0.2,0.6-0.5,1-1,1.3c-0.6,0.3-1.6,0.5-2.3,0.3c-0.6-0.2-0.9-0.6-1.2-1.1L21.5,22.9z"/>
</g>
<g transform="matrix(0.666667,0,0,0.666667,0,0)">
	<path class="st5" d="M10.1,9.4L10.1,9.4c-0.1,0-0.1,0-0.1,0c0.2-0.3,0.4-0.6,0.6-0.8c0.7-0.9,1.7-1.7,2.7-2.2
		c1.7-0.9,3.6-1.3,5.4-1.1c0.5,0,1,0.1,1.5,0.2c0.4,0.1,0.8,0.3,1.2,0.4c0.8,0.3,1.6,0.7,2.3,1.2c0.1,0.1,0.3,0.2,0.5,0.4l0,0
		c-0.1,0-0.1,0-0.1-0.1l0,0c0,0.1,0,0.2,0,0.2l0,0c0,0,0,0,0-0.1l0,0c0,0,0-0.1,0-0.1l0,0l0,0.2c0,0,0,0-0.1,0l0,0c0,0,0,0.1,0,0.2
		c0,0.3-0.1,0.6-0.2,0.8c-1.2-0.8-2.5-1.2-3.8-1.5l0-0.1c0-0.1,0.1-0.2,0.1-0.3c0-0.2,0.1-0.4,0.1-0.6c0-0.1,0-0.2,0-0.3
		c0,0,0,0,0,0c-0.1,0-0.2,0-0.2-0.1c-0.6-0.1-1.1-0.2-1.7-0.2c-2.1-0.1-4.2,0.6-5.9,1.8c-0.5,0.3-0.9,0.7-1.3,1.1
		c-0.1,0.1-0.3,0.3-0.4,0.5C10.5,9.1,10.3,9.3,10.1,9.4L10.1,9.4z"/>
</g>
<g transform="matrix(0.666667,0,0,0.666667,0,0)">
	<path d="M8.2,11.8l0.5,0l0,0.1L8.2,11.8L8.2,11.8z"/>
</g>
<g transform="matrix(0.666667,0,0,0.666667,0,0)">
	<path d="M27.3,11.8l0.5,0l0,0.1C27.7,11.9,27.4,11.9,27.3,11.8L27.3,11.8z"/>
</g>
<g transform="matrix(0.666667,0,0,0.666667,0,0)">
	<path d="M26.3,15.3l0-0.5c0.3,0.1,0.6,0.1,0.7,0.4c0.1,0.2,0.1,0.3,0.1,0.5c0,0.4-0.1,0.9-0.2,1.3c-0.1,0.5-0.2,1-0.3,1.5
		c-0.2,0.9-0.4,1.8-0.6,2.7c-0.1,0.3-0.2,0.7-0.3,1c-0.2,0.5-0.3,0.9-0.7,1.2l-0.3,0.2c0-0.1,0-0.2,0-0.2c0-0.1,0.1-0.3,0.1-0.4
		c0.1-0.5,0.2-1,0.3-1.5c0.3-1.6,0.6-3.2,0.9-4.8C26.2,16.2,26.3,15.7,26.3,15.3z"/>
</g>
<g transform="matrix(0.666667,0,0,0.666667,0,0)">
	<path d="M27.5,16c0.3,0.1,0.6,0.2,0.8,0.4c0.2,0.1,0.3,0.6,0.3,0.9c0,0.3,0,0.5,0,0.7c0,0.3-0.1,0.7-0.2,1
		c-0.1,0.5-0.2,1.1-0.4,1.6c-0.1,0.4-0.2,0.9-0.4,1.3c-0.1,0.2-0.3,0.3-0.6,0.3l-0.8,0l-0.2,0.2c0.1-0.3,0.2-0.6,0.2-0.9
		c0.2-0.6,0.3-1.3,0.4-1.9C27,18.5,27.3,17.3,27.5,16z"/>
</g>
<g transform="matrix(0.666667,0,0,0.666667,0,0)">
	<path class="st4" d="M11,9.8c0,0,0.1-0.1,0.1-0.2c0.1-0.1,0.1-0.1,0.2-0.2c0.3-0.3,0.6-0.5,0.8-0.7c0.5-0.3,0.9-0.6,1.5-0.9
		c1.2-0.6,2.5-0.9,3.9-1c0.8,0,1.6,0,2.4,0.1c1.4,0.3,2.6,0.8,3.8,1.5c0.4,0.3,0.7,0.5,1,0.9c0.1,0.1,0.2,0.2,0.2,0.3
		c0,0.2,0.1,0.3,0.2,0.5l0,0c-0.2,0-0.5-0.3-0.6-0.4c-0.5-0.4-1-0.7-1.5-1c-0.2-0.1-0.5-0.3-0.7-0.4c-0.3-0.1-0.7-0.3-1-0.4
		c-0.3-0.1-0.7-0.2-1.1-0.3c0,0-0.2,0-0.2,0c-0.2,0-0.5-0.1-0.7-0.1c-0.7-0.1-1.4-0.1-2.1-0.1c-1.7,0.2-3.5,0.7-4.9,1.7
		c-0.2,0.2-0.4,0.3-0.6,0.5c-0.2,0.2-0.5,0.4-0.7,0.5c-0.1,0-0.1,0.1-0.2,0.1L11,9.8z"/>
</g>
<path class="st6" d="M12.3,20.4c0-0.1-0.1-0.1-0.1-0.1h-0.2c-0.1,0-0.1,0.1-0.1,0.1v1.8c0,0.1,0.1,0.1,0.1,0.1h0.2
	c0.1,0,0.1-0.1,0.1-0.1V20.4z"/>
</svg>
