<?xml version="1.0" encoding="utf-8"?>
<!-- Generator: Adobe Illustrator 23.0.5, SVG Export Plug-In . SVG Version: 6.00 Build 0)  -->
<svg version="1.1" id="Capa_1" xmlns:serif="http://www.serif.com/"
	 xmlns="http://www.w3.org/2000/svg" xmlns:xlink="http://www.w3.org/1999/xlink" x="0px" y="0px" viewBox="0 0 24 24"
	 style="enable-background:new 0 0 24 24;" xml:space="preserve">
<style type="text/css">
	.st0{fill:#393E41;}
	.st1{fill:#E8E8E8;}
	.st2{fill:#FFFFFF;}
	.st3{fill:none;}
</style>
<g transform="matrix(0.666667,0,0,0.666667,0,0)">
	<path class="st0" d="M17.6,31L17.6,31l0.7-0.1l0.1,0c0,0,0,0.1,0,0.1c0,0.1,0,0.1,0,0.2l-0.8,0L17.6,31z"/>
</g>
<g transform="matrix(0.666667,0,0,0.666667,3.62451,2.34931)">
	<path class="st1" d="M-0.9,24.5c-0.2-0.2-0.3-0.5-0.5-0.7c-0.3-0.4-0.5-0.8-0.7-1.3c-0.4-0.7-0.7-1.4-0.9-2.2
		c-0.4-1.1-0.6-2.3-0.8-3.5C-3.9,16.1-4,15.3-4,14.6c0-0.7,0.1-1.3,0.1-2c0.3-2.7,1.3-5.2,2.8-7.4c0.2-0.3,0.4-0.6,0.6-0.9
		c0.9-1.2,2-2.2,3.1-3.1c1.7-1.3,3.6-2.3,5.6-2.9c2.2-0.6,4.5-0.7,6.7-0.4C15.6-2.1,16.3-2,17-1.8c3.2,0.8,6.1,2.6,8.3,5.1
		c0.3,0.3,0.5,0.6,0.7,0.9c1,1.3,1.9,2.8,2.5,4.4c0.3,0.8,0.5,1.6,0.7,2.4c0.2,0.7,0.3,1.4,0.4,2.2c0.1,1.2,0.1,2.5-0.1,3.7
		c-0.3,2.2-1.1,4.3-2.1,6.3c-0.3,0.6-0.7,1.3-1.1,1.8c-0.2,0.3-0.5,0.6-0.7,0.9c-1.1,1.3-2.4,2.4-3.9,3.4c-0.6,0.4-1.1,0.7-1.7,0.9
		c-1.1,0.5-2.3,0.9-3.5,1.2c-1.5,0.3-3.2,0.4-4.7,0.3c-0.9-0.1-1.8-0.2-2.6-0.4c-2.5-0.6-4.9-1.8-6.9-3.4c-0.4-0.3-0.8-0.7-1.2-1.1
		C0.3,26.1-0.4,25.3-0.9,24.5z"/>
</g>
<g transform="matrix(0.604344,0,0,0.604344,27.5508,26.3526)">
	<path d="M-39.2-13.7c-0.2-0.2-0.3-0.5-0.5-0.7c-0.3-0.4-0.5-0.8-0.7-1.3c-0.4-0.7-0.7-1.4-0.9-2.2c-0.4-1.1-0.6-2.3-0.8-3.5
		c-0.1-0.8-0.2-1.5-0.2-2.3c0-0.7,0.1-1.3,0.1-2c0.3-2.7,1.3-5.2,2.8-7.4c0.2-0.3,0.4-0.6,0.6-0.9c0.9-1.2,2-2.2,3.1-3.1
		c1.7-1.3,3.6-2.3,5.6-2.9c2.2-0.6,4.5-0.7,6.7-0.4c0.7,0.1,1.4,0.2,2.1,0.4c3.2,0.8,6.1,2.6,8.3,5.1c0.3,0.3,0.5,0.6,0.7,0.9
		c1,1.3,1.9,2.8,2.5,4.4c0.3,0.8,0.5,1.6,0.7,2.4c0.2,0.7,0.3,1.4,0.4,2.2c0.1,1.2,0.1,2.5-0.1,3.7c-0.3,2.2-1.1,4.3-2.1,6.3
		c-0.3,0.6-0.7,1.3-1.1,1.8c-0.2,0.3-0.5,0.6-0.7,0.9c-1.1,1.3-2.4,2.4-3.9,3.4c-0.6,0.4-1.1,0.7-1.7,0.9c-1.1,0.5-2.3,0.9-3.5,1.2
		c-1.5,0.3-3.2,0.4-4.7,0.3c-0.9-0.1-1.8-0.2-2.6-0.4c-2.5-0.6-4.9-1.8-6.9-3.4c-0.4-0.3-0.8-0.7-1.2-1.1
		C-38-12.1-38.7-12.9-39.2-13.7z"/>
</g>
<g>
	<polygon class="st2" points="10.2,10.9 9.9,10.6 10.6,9.1 14.1,9.1 14.7,10.6 14.4,10.9 13.9,9.6 10.8,9.6 	"/>
</g>
<circle cx="11.9" cy="17.4" r="0.7"/>
<path class="st2" d="M4.1,6.7L4.1,6.7c0.1,0,0.2,0,0.2,0.1v3.3c0,0,0,0.1-0.1,0.1H4.1c0,0-0.1,0-0.1-0.1L4.1,6.7
	C4,6.7,4,6.7,4.1,6.7z"/>
<path class="st3" d="M9.5,15.2H14c-0.6-0.5-1.4-0.8-2.2-0.8S10.1,14.7,9.5,15.2z"/>
<g>
	<path class="st2" d="M18,14.3h-0.1c-0.2,0-0.3-0.2-0.3-0.3V11c0-0.2,0.2-0.3,0.3-0.3H18c0.2,0,0.3,0.2,0.3,0.3v2.9
		C18.3,14.1,18.2,14.3,18,14.3z"/>
	<path class="st2" d="M19.1,13.9H19c-0.2,0-0.3-0.1-0.3-0.3v-2c0-0.2,0.1-0.3,0.3-0.3h0.1c0.2,0,0.3,0.1,0.3,0.3v2
		C19.5,13.8,19.3,13.9,19.1,13.9z"/>
	<polygon class="st2" points="19.9,10.7 19.9,14.3 21.2,15.4 21.2,9.5 	"/>
	<rect x="2.8" y="9.4" class="st2" width="2" height="4.5"/>
	<path class="st2" d="M16.4,8.9h-0.6l-1.1,1.3H9.6l-1-1.3H5.7c-0.3,0-0.6,0.3-0.6,0.6v5.7c0,0.3,0.3,0.6,0.6,0.6h1.6
		c0.6-1,2-1.7,3.7-1.7s3.1,0.7,3.7,1.7h1.7c0.3,0,0.6-0.3,0.6-0.6V9.5C16.9,9.2,16.7,8.9,16.4,8.9z"/>
	<path class="st2" d="M11,14.3c-1.3,0-2.5,0.6-3.2,1.5h0.6c0.7-0.6,1.6-0.9,2.6-0.9s1.9,0.4,2.6,0.9h0.6
		C13.5,14.8,12.3,14.3,11,14.3z"/>
</g>
</svg>
