<?xml version="1.0" encoding="utf-8"?>
<!-- Generator: Adobe Illustrator 23.0.5, SVG Export Plug-In . SVG Version: 6.00 Build 0)  -->
<svg version="1.1" id="Capa_1" xmlns:serif="http://www.serif.com/"
	 xmlns="http://www.w3.org/2000/svg" xmlns:xlink="http://www.w3.org/1999/xlink" x="0px" y="0px" viewBox="0 0 24 24"
	 style="enable-background:new 0 0 24 24;" xml:space="preserve">
<style type="text/css">
	.st0{fill:#393E41;}
	.st1{fill:#E8E8E8;}
	.st2{fill:#FFFFFF;}
	.st3{fill:#FFFFFF;stroke:#000000;stroke-width:0.1642;stroke-miterlimit:10;}
	.st4{font-family:'Impact';}
	.st5{font-size:4.3821px;}
</style>
<g transform="matrix(0.666667,0,0,0.666667,0,0)">
	<path class="st0" d="M17.6,31L17.6,31l0.7-0.1l0.1,0c0,0,0,0.1,0,0.1c0,0.1,0,0.1,0,0.2l-0.8,0L17.6,31z"/>
</g>
<g transform="matrix(0.666667,0,0,0.666667,3.62451,2.34931)">
	<path class="st1" d="M-0.9,24.5c-0.2-0.2-0.3-0.5-0.5-0.7c-0.3-0.4-0.5-0.8-0.7-1.3c-0.4-0.7-0.7-1.4-0.9-2.2
		c-0.4-1.1-0.6-2.3-0.8-3.5C-3.9,16.1-4,15.3-4,14.6c0-0.7,0.1-1.3,0.1-2c0.3-2.7,1.3-5.2,2.8-7.4c0.2-0.3,0.4-0.6,0.6-0.9
		c0.9-1.2,2-2.2,3.1-3.1c1.7-1.3,3.6-2.3,5.6-2.9c2.2-0.6,4.5-0.7,6.7-0.4C15.6-2.1,16.3-2,17-1.8c3.2,0.8,6.1,2.6,8.3,5.1
		c0.3,0.3,0.5,0.6,0.7,0.9c1,1.3,1.9,2.8,2.5,4.4c0.3,0.8,0.5,1.6,0.7,2.4c0.2,0.7,0.3,1.4,0.4,2.2c0.1,1.2,0.1,2.5-0.1,3.7
		c-0.3,2.2-1.1,4.3-2.1,6.3c-0.3,0.6-0.7,1.3-1.1,1.8c-0.2,0.3-0.5,0.6-0.7,0.9c-1.1,1.3-2.4,2.4-3.9,3.4c-0.6,0.4-1.1,0.7-1.7,0.9
		c-1.1,0.5-2.3,0.9-3.5,1.2c-1.5,0.3-3.2,0.4-4.7,0.3c-0.9-0.1-1.8-0.2-2.6-0.4c-2.5-0.6-4.9-1.8-6.9-3.4c-0.4-0.3-0.8-0.7-1.2-1.1
		C0.3,26.1-0.4,25.3-0.9,24.5z"/>
</g>
<g transform="matrix(0.604344,0,0,0.604344,27.5508,26.3526)">
	<path d="M-39.2-13.7c-0.2-0.2-0.3-0.5-0.5-0.7c-0.3-0.4-0.5-0.8-0.7-1.3c-0.4-0.7-0.7-1.4-0.9-2.2c-0.4-1.1-0.6-2.3-0.8-3.5
		c-0.1-0.8-0.2-1.5-0.2-2.3c0-0.7,0.1-1.3,0.1-2c0.3-2.7,1.3-5.2,2.8-7.4c0.2-0.3,0.4-0.6,0.6-0.9c0.9-1.2,2-2.2,3.1-3.1
		c1.7-1.3,3.6-2.3,5.6-2.9c2.2-0.6,4.5-0.7,6.7-0.4c0.7,0.1,1.4,0.2,2.1,0.4c3.2,0.8,6.1,2.6,8.3,5.1c0.3,0.3,0.5,0.6,0.7,0.9
		c1,1.3,1.9,2.8,2.5,4.4c0.3,0.8,0.5,1.6,0.7,2.4c0.2,0.7,0.3,1.4,0.4,2.2c0.1,1.2,0.1,2.5-0.1,3.7c-0.3,2.2-1.1,4.3-2.1,6.3
		c-0.3,0.6-0.7,1.3-1.1,1.8c-0.2,0.3-0.5,0.6-0.7,0.9c-1.1,1.3-2.4,2.4-3.9,3.4c-0.6,0.4-1.1,0.7-1.7,0.9c-1.1,0.5-2.3,0.9-3.5,1.2
		c-1.5,0.3-3.2,0.4-4.7,0.3c-0.9-0.1-1.8-0.2-2.6-0.4c-2.5-0.6-4.9-1.8-6.9-3.4c-0.4-0.3-0.8-0.7-1.2-1.1
		C-38-12.1-38.7-12.9-39.2-13.7z"/>
</g>
<g>
	<path class="st2" d="M14,16.2v0.2v2.1c0,0-1.7,2.3-4.3,0v-2.3"/>
	<g>
		<path class="st2" d="M16.3,9.5h-9C7,9.5,6.8,9.7,6.8,9.9v4.8c0,0.3,0.2,0.5,0.5,0.5h1.4c0.5-0.9,1.7-1.5,3.1-1.5s2.6,0.6,3.1,1.5
			h1.4c0.3,0,0.5-0.2,0.5-0.5V9.9C16.8,9.7,16.6,9.5,16.3,9.5z"/>
		<path class="st2" d="M17.6,14L17.6,14c-0.2,0-0.3-0.2-0.3-0.3v-2.3c0-0.2,0.2-0.3,0.3-0.3h0c0.2,0,0.3,0.2,0.3,0.3v2.3
			C17.9,13.8,17.8,14,17.6,14z"/>
		<path class="st2" d="M18.6,13.7L18.6,13.7c-0.2,0-0.3-0.1-0.3-0.3v-1.6c0-0.2,0.1-0.3,0.3-0.3h0c0.2,0,0.3,0.1,0.3,0.3v1.6
			C18.9,13.5,18.8,13.7,18.6,13.7z"/>
		<polygon class="st2" points="19.3,10.9 19.3,14 20.4,14.9 20.4,9.9 		"/>
		<path class="st1" d="M16.4,16.2H7.2c-0.2,0-0.3-0.2-0.3-0.3v0c0-0.2,0.2-0.3,0.3-0.3h9.3c0.2,0,0.3,0.2,0.3,0.3v0
			C16.8,16,16.6,16.2,16.4,16.2z"/>
		<path class="st2" d="M4.2,7.2l4.9-2.1c0,0,0.8,1.8-0.4,2.6L6,8.7L4.2,7.2z"/>
		<polygon class="st2" points="7,7.6 7.8,8.4 7.8,9.7 9,9.7 8.7,7.7 7.8,6.9 		"/>
		<circle class="st3" cx="7.3" cy="7.1" r="0.5"/>
		<g>
			<polygon class="st2" points="10.2,9.9 9.9,9.6 10.8,8.4 15,8.4 15.8,9.6 15.5,9.9 14.8,8.8 11,8.8 			"/>
		</g>
	</g>
	<circle class="st1" cx="11.9" cy="17.4" r="1.6"/>
	<circle cx="11.9" cy="17.4" r="0.7"/>
	<text transform="matrix(1.3001 0 0 1 7.2785 13.6682)" class="st4 st5">1</text>
</g>
<path class="st2" d="M11.9,20.1c-0.3,0-0.5,0.2-0.5,0.5v1.1c0.1,0,0.1,0,0.2,0c0.3,0,0.6,0,0.9,0v-1.1
	C12.4,20.3,12.2,20.1,11.9,20.1z"/>
<path class="st2" d="M10.1,16.5c-0.1-0.2-0.4-0.2-0.6-0.1l-3.8,2.9c0,0,0,0,0,0c0.1,0.1,0.2,0.2,0.3,0.3c0.1,0.1,0.2,0.2,0.3,0.2
	l3.7-2.8C10.2,16.9,10.3,16.6,10.1,16.5z"/>
<path class="st2" d="M9.8,20c-0.3-0.1-0.6,0-0.7,0.2l-0.4,0.8c0.3,0.1,0.7,0.3,1,0.4l0.4-0.7C10.1,20.5,10,20.2,9.8,20z"/>
<path class="st2" d="M13.7,20.1c-0.3,0.2-0.3,0.5-0.2,0.7l0.5,0.8c0.1,0,0.1,0,0.2,0c0.3-0.1,0.6-0.2,0.9-0.3l-0.6-1
	C14.3,20,14,20,13.7,20.1z"/>
</svg>
