<?xml version="1.0" encoding="utf-8"?>
<!-- Generator: Adobe Illustrator 23.0.5, SVG Export Plug-In . SVG Version: 6.00 Build 0)  -->
<svg version="1.1" id="Capa_1" xmlns:serif="http://www.serif.com/"
	 xmlns="http://www.w3.org/2000/svg" xmlns:xlink="http://www.w3.org/1999/xlink" x="0px" y="0px" viewBox="0 0 24 24"
	 style="enable-background:new 0 0 24 24;" xml:space="preserve">
<style type="text/css">
	.st0{fill:#393E41;}
	.st1{fill:#E8E8E8;}
	.st2{fill:#F6F7EB;}
	.st3{fill:#D4D4D4;}
	.st4{fill:#9B9A9A;}
	.st5{fill:#FFFFFF;}
	.st6{fill-rule:evenodd;clip-rule:evenodd;fill:#F6F7EB;}
	.st7{fill:#0A0909;}
	.st8{fill:#010101;}
</style>
<g transform="matrix(0.666667,0,0,0.666667,0,0)">
	<path class="st0" d="M17.6,31L17.6,31l0.7-0.1l0.1,0c0,0,0,0.1,0,0.1c0,0.1,0,0.1,0,0.2l-0.8,0L17.6,31z"/>
</g>
<g transform="matrix(0.666667,0,0,0.666667,3.62451,2.34931)">
	<path class="st1" d="M-0.9,24.5c-0.2-0.2-0.3-0.5-0.5-0.7c-0.3-0.4-0.5-0.8-0.7-1.3c-0.4-0.7-0.7-1.4-0.9-2.2
		c-0.4-1.1-0.6-2.3-0.8-3.5C-3.9,16.1-4,15.3-4,14.6c0-0.7,0.1-1.3,0.1-2c0.3-2.7,1.3-5.2,2.8-7.4c0.2-0.3,0.4-0.6,0.6-0.9
		c0.9-1.2,2-2.2,3.1-3.1c1.7-1.3,3.6-2.3,5.6-2.9c2.2-0.6,4.5-0.7,6.7-0.4C15.6-2.1,16.3-2,17-1.8c3.2,0.8,6.1,2.6,8.3,5.1
		c0.3,0.3,0.5,0.6,0.7,0.9c1,1.3,1.9,2.8,2.5,4.4c0.3,0.8,0.5,1.6,0.7,2.4c0.2,0.7,0.3,1.4,0.4,2.2c0.1,1.2,0.1,2.5-0.1,3.7
		c-0.3,2.2-1.1,4.3-2.1,6.3c-0.3,0.6-0.7,1.3-1.1,1.8c-0.2,0.3-0.5,0.6-0.7,0.9c-1.1,1.3-2.4,2.4-3.9,3.4c-0.6,0.4-1.1,0.7-1.7,0.9
		c-1.1,0.5-2.3,0.9-3.5,1.2c-1.5,0.3-3.2,0.4-4.7,0.3c-0.9-0.1-1.8-0.2-2.6-0.4c-2.5-0.6-4.9-1.8-6.9-3.4c-0.4-0.3-0.8-0.7-1.2-1.1
		C0.3,26.1-0.4,25.3-0.9,24.5z"/>
</g>
<g transform="matrix(0.604344,0,0,0.604344,27.5508,26.3526)">
	<path d="M-39.2-13.7c-0.2-0.2-0.3-0.5-0.5-0.7c-0.3-0.4-0.5-0.8-0.7-1.3c-0.4-0.7-0.7-1.4-0.9-2.2c-0.4-1.1-0.6-2.3-0.8-3.5
		c-0.1-0.8-0.2-1.5-0.2-2.3c0-0.7,0.1-1.3,0.1-2c0.3-2.7,1.3-5.2,2.8-7.4c0.2-0.3,0.4-0.6,0.6-0.9c0.9-1.2,2-2.2,3.1-3.1
		c1.7-1.3,3.6-2.3,5.6-2.9c2.2-0.6,4.5-0.7,6.7-0.4c0.7,0.1,1.4,0.2,2.1,0.4c3.2,0.8,6.1,2.6,8.3,5.1c0.3,0.3,0.5,0.6,0.7,0.9
		c1,1.3,1.9,2.8,2.5,4.4c0.3,0.8,0.5,1.6,0.7,2.4c0.2,0.7,0.3,1.4,0.4,2.2c0.1,1.2,0.1,2.5-0.1,3.7c-0.3,2.2-1.1,4.3-2.1,6.3
		c-0.3,0.6-0.7,1.3-1.1,1.8c-0.2,0.3-0.5,0.6-0.7,0.9c-1.1,1.3-2.4,2.4-3.9,3.4c-0.6,0.4-1.1,0.7-1.7,0.9c-1.1,0.5-2.3,0.9-3.5,1.2
		c-1.5,0.3-3.2,0.4-4.7,0.3c-0.9-0.1-1.8-0.2-2.6-0.4c-2.5-0.6-4.9-1.8-6.9-3.4c-0.4-0.3-0.8-0.7-1.2-1.1
		C-38-12.1-38.7-12.9-39.2-13.7z"/>
</g>
<g>
	<path class="st1" d="M19.4,17.8c0-0.2,0-0.4-0.1-0.6c-0.1-0.3-0.2-0.7-0.3-1c-0.1-0.2-0.2-0.4-0.3-0.7c-0.1-0.4-0.2-0.7-0.2-1.1
		h0.2l0-0.3h-0.6l0,0.3l0.2,0c0,0.4,0.1,0.8,0.2,1.2c0.2,0.7,0.6,1.3,0.7,2c0,0.1,0,0.3-0.1,0.4l-0.2,0l0,0.3c-0.1,0-0.3,0-0.4,0
		c-0.2,0-0.4,0.1-0.5,0.2l-0.1,0.1c-0.7-0.4-1.4-0.9-2-1.4c-0.2-0.2-0.3-0.3-0.5-0.5c-0.1-0.1-0.2-0.2-0.3-0.3c0,0-0.1-0.1-0.1-0.1
		l0,0c-0.1,0-0.3,0-0.4,0c0-0.1,0-0.2,0-0.3c0-0.3,0-0.7,0-1c0-0.1,0-0.3,0-0.4c0-0.1,0.1-0.2,0.2-0.2c0.1-0.1,0.1-0.2,0.2-0.2
		c0.1-0.1,0.2-0.3,0.2-0.4l0.5,0c0,0,0,0,0,0c0,0,0,0,0,0l-0.5,0C15,13.9,15,14,14.9,14.1c-0.1,0.1-0.1,0.2-0.2,0.2
		c-0.1,0.1-0.1,0.1-0.2,0.2c0,0-0.1,0-0.1,0c-0.1,0-0.2,0.1-0.2,0.2c-0.2,0.2-0.4,0.3-0.6,0.4c-0.7,0.4-1.5,0.5-2.3,0.2
		c-0.3-0.1-0.5-0.3-0.8-0.5c-0.1-0.1-0.2-0.1-0.3-0.2c-0.1-0.1-0.1-0.1-0.2-0.2l0,0l0,0.4c0,0.3,0,0.6-0.1,0.9c0,0.1,0,0.3,0,0.5
		c-0.1,0-0.4,0-0.5,0c-0.1,0.1-0.2,0.2-0.3,0.3C9,16.8,8.9,16.9,8.8,17c-0.2,0.2-0.4,0.3-0.5,0.5c-0.3,0.3-0.7,0.5-1,0.7
		c-0.1,0.1-0.2,0.2-0.4,0.2c-0.1,0.1-0.2,0.1-0.3,0.2c0,0-0.1,0-0.1,0.1l0,0c-0.1,0-0.1,0.1-0.2,0.1C6,19,5.8,19.1,5.7,19.2
		c0.1,0.1,0.2,0.2,0.3,0.3c0.4,0.4,0.9,0.7,1.4,0.9c0.4,0.2,0.8,0.5,1.3,0.6c1.5,0.6,3.1,0.8,4.7,0.6c0.6-0.1,1.1-0.2,1.7-0.3
		c0.9-0.3,1.9-0.8,2.7-1.3c0.3-0.2,0.7-0.5,1-0.8L18,18.8c0.3-0.3,0.7-0.3,1.1-0.3c0.1,0,0.2,0,0.2,0c0,0,0-0.1,0-0.1
		C19.3,18.2,19.4,18,19.4,17.8z"/>
	<g transform="matrix(0.666667,0,0,0.666667,0,0)">
		<path class="st2" d="M15,21.9L15,21.9c0.2,0,0.3,0.2,0.4,0.3c0.1,0.1,0.3,0.2,0.4,0.3c0.4,0.3,0.8,0.5,1.2,0.7
			c1.1,0.5,2.3,0.3,3.4-0.3c0.3-0.2,0.7-0.4,1-0.6c0.1-0.1,0.2-0.2,0.3-0.3c0,0,0.1,0,0.1,0c0,0.2,0,0.5,0,0.7c0,0.5,0,1,0.1,1.5
			c0,0.1,0,0.3,0,0.5c0,0.1,0,0.3,0.1,0.4c0,0.1,0.1,0.2,0.1,0.3c-0.8,0.9-2.2,1.4-3.4,1.5c-1.1,0.1-2.2-0.2-3.1-0.7
			c-0.3-0.1-0.5-0.3-0.7-0.5c-0.1-0.1-0.1-0.1-0.2-0.2l0.2-0.7c0.1-0.2,0.1-0.5,0.1-0.7c0-0.5,0.1-0.9,0.1-1.4L15,21.9z"/>
	</g>
	<g transform="matrix(0.666667,0,0,0.666667,0,0)">
		<path class="st3" d="M15,21.9L15,21.9c0.2,0,0.3,0.2,0.4,0.3c0.1,0.1,0.3,0.2,0.4,0.3c0.4,0.3,0.8,0.5,1.2,0.7
			c1.1,0.5,2.3,0.3,3.4-0.3c0.3-0.2,0.7-0.4,1-0.6c0.1-0.1,0.2-0.2,0.3-0.3c0,0,0.1,0,0.1,0c0,0.2,0,0.5,0,0.7c0,0,0-0.1,0-0.1
			c-0.2,0.1-0.3,0.3-0.5,0.4c-0.5,0.5-1.1,0.8-1.8,1.1c-0.6,0.2-1.4,0.3-2,0.1c-0.7-0.2-1.2-0.6-1.8-1c-0.1-0.1-0.3-0.2-0.4-0.3
			c-0.1-0.1-0.2-0.2-0.3-0.3l0,0L15,21.9z"/>
	</g>
	<path class="st4" d="M16.6,13.9c0.1,0,0.3,0,0.4,0l0,0c0,0,0.1,0,0.1,0c0.3-0.1,0.4-0.5,0.5-0.8c-0.1,0.3-0.3,0.7-0.5,0.8
		c0,0-0.1,0-0.1,0l0,0C16.8,13.9,16.7,13.8,16.6,13.9c-0.3,0-0.6,0-0.8,0c0,0,0,0,0,0C16,13.9,16.3,13.9,16.6,13.9z"/>
	<path d="M15.7,13.8C15.7,13.8,15.7,13.8,15.7,13.8C15.7,13.8,15.7,13.8,15.7,13.8C15.7,13.8,15.7,13.8,15.7,13.8z"/>
	<g transform="matrix(0.666667,0,0,0.666667,0,0)">
		<path class="st2" d="M27.2,20.1l0.8,0l0,1.2h-0.8L27.2,20.1z"/>
	</g>
	<g transform="matrix(0.666667,0,0,0.666667,0,0)">
		<path class="st5" d="M28.6,15.7c0.1,0,0.2,0.1,0.3,0.3c0,0.1,0.1,0.1,0.1,0.2c0,0.3,0,0.5,0,0.8c0,0.4-0.1,0.9-0.1,1.3
			c0,0.3-0.1,0.7-0.1,1c0,0.2,0,0.3-0.1,0.5c0,0.1-0.1,0.2-0.3,0.3c-0.1,0-0.1,0-0.2,0l-0.8,0c-0.1,0-0.3,0-0.4,0
			c-0.2-0.1-0.3-0.3-0.3-0.5l0.7-3.8L28.6,15.7z"/>
	</g>
	<g>
		<path class="st6" d="M7.7,6.6c0-0.7,0.1-1.4,0.2-2c0.1-0.2,0.3-0.3,0.5-0.4c1-0.8,2.2-1.3,3.5-1.4c1.6-0.1,3.1,0.5,4.3,1.5
			l0.5,0.5c0.2,0.3,0.5,0.5,0.6,0.9l0,0l-0.1,0.3c0,0,0,0,0,0.1l0,0c0-0.1,0.1-0.1,0.1-0.2c0,0,0-0.1,0-0.1c0.2,0.2,0.4,0.4,0.5,0.6
			c0.6,0.9,1,1.9,1.1,3c0,0.2,0,0.5,0,0.7c0,0.1,0,0.2,0,0.3c0,0,0,0.1,0,0.1l-0.9,0L17.7,13c-0.1,0.3-0.3,0.7-0.5,0.8
			c0,0-0.1,0-0.1,0l0,0c-0.1,0-0.3,0-0.4,0c-0.3,0-0.6,0-0.8,0c0,0,0-0.1-0.1-0.1h-0.5C15,13.9,15,14,14.9,14.2
			c-0.1,0.1-0.1,0.2-0.2,0.2c-0.1,0.1-0.1,0.1-0.2,0.2c0,0-0.1,0-0.1,0c-0.1,0.1-0.2,0.1-0.2,0.2c-0.2,0.2-0.4,0.3-0.6,0.4
			c-0.7,0.4-1.5,0.5-2.3,0.2c-0.3-0.1-0.5-0.3-0.8-0.5c-0.1-0.1-0.2-0.1-0.3-0.2c-0.1-0.1-0.1-0.1-0.2-0.2l0,0
			c-0.1-0.1-0.2-0.2-0.3-0.4c0,0,0,0,0,0c-1.6-1.6-2-3.7-2.1-5.5C7.6,7.9,7.6,7.2,7.7,6.6z"/>
	</g>
	<g transform="matrix(0.666667,0,0,0.666667,0,0)">
		<path class="st7" d="M24.8,12.6l0.7,0c0,1.1-0.2,2.1-0.3,3.2c-0.2,1.4-0.3,2.9-0.7,4.3c-0.2,0-0.3,0-0.5,0c-0.1,0-0.2,0-0.2,0
			L24.8,12.6z"/>
	</g>
	<g transform="matrix(0.666667,0,0,0.666667,0,0)">
		<path class="st8" d="M25.8,14.1l0.1-1.4c0.3,0.1,0.6,0.5,0.8,0.7l-0.1,1.1v0c-0.1,1.2-0.3,2.4-0.5,3.5c-0.1,0.4-0.1,0.9-0.3,1.3
			c-0.1,0.2-0.1,0.3-0.3,0.4c-0.2,0.2-0.4,0.1-0.7,0.1L25.8,14.1z"/>
	</g>
	<g transform="matrix(0.666667,0,0,0.666667,0,0)">
		<path class="st5" d="M11.8,9.7c-0.2-0.1-0.3-0.2-0.5-0.4c-0.3-0.2-0.5-0.5-0.6-0.7l0,0.1c-0.1-0.1-0.1-0.1-0.1-0.2
			c0,0,0.1-0.1,0.1-0.1C10.8,8.3,10.9,8.1,11,8c0.2-0.3,0.4-0.5,0.6-0.8c0.3-0.4,0.6-0.7,1-1c1.5-1.2,3.4-2,5.3-2.1
			c2.4-0.1,4.7,0.7,6.4,2.3l0.8,0.8C25.4,7.6,25.8,8,26,8.5l0,0l-0.2,0.4c0,0,0,0.1,0,0.1l-0.1,0.2c0.2,0.3,0.4,0.6,0.6,0.9
			c0.3,0.5,0.6,1.2,0.8,1.8l-0.7,0c-0.1-0.1-0.1-0.3-0.1-0.4c0-0.2-0.1-0.3-0.2-0.5c-0.2-0.4-0.4-0.8-0.6-1.2
			c-0.1,0.1-0.3,0.1-0.5,0.1c-0.2-0.1-0.3-0.2-0.4-0.4c0-0.1-0.1-0.1-0.1-0.2c-0.2-0.3-0.4-0.6-0.6-0.8c-0.1-0.1-0.2-0.2-0.3-0.4
			c-0.1-0.1-0.1-0.1-0.2-0.2c0-0.1-0.2-0.3-0.3-0.3c-1.5-1.2-3.5-2-5.4-1.8c-1.4,0.1-2.8,0.7-3.9,1.6c-0.2,0.1-0.4,0.3-0.5,0.5
			l0,0.1l0,0.1c0,0,0,0-0.1,0c0,0-0.1,0-0.1,0.1c-0.1,0.1-0.1,0.1-0.2,0.2c-0.2,0.3-0.4,0.5-0.6,0.8c-0.1,0.1-0.1,0.2-0.2,0.3
			C12,9.6,12,9.7,11.8,9.7L11.8,9.7L11.8,9.7L11.8,9.7z"/>
	</g>
	<g transform="matrix(0.666667,0,0,0.666667,0,0)">
		<path class="st7" d="M23.4,7.8c0.1-0.1,0.1-0.2,0.2-0.3l0.3,0.2c-0.1,0.1-0.2,0.2-0.3,0.3C23.5,8,23.4,7.9,23.4,7.8z"/>
	</g>
	<g transform="matrix(0.666667,0,0,0.666667,0,0)">
		<path d="M13,7.6l0.4-0.3c0.2-0.2,0.5-0.4,0.7-0.6c1.4-1,3.2-1.5,4.9-1.3c0.5,0,1,0.1,1.5,0.3C21.4,5.9,22.2,6.4,23,7
			c0.2,0.2,0.4,0.3,0.6,0.5c-0.1,0.1-0.1,0.2-0.2,0.3c0-0.1-0.2-0.3-0.3-0.3c-1.5-1.2-3.5-2-5.4-1.8c-1.4,0.1-2.8,0.7-3.9,1.6
			c-0.2,0.1-0.4,0.3-0.5,0.5l0,0.1C13.1,7.7,13.1,7.6,13,7.6z"/>
	</g>
	<path d="M16.3,11.6V12l-1.6,1.5l-1.7,0c-0.1-0.2-0.3-0.4-0.6-0.4c-0.3,0-0.6,0.3-0.6,0.6c0,0.3,0.3,0.6,0.6,0.6
		c0.3,0,0.5-0.2,0.6-0.4l1.9,0l1.7-1.6h0.3v-0.8H16.3z"/>
</g>
<g>
	<path class="st7" d="M17.9,8.3c0,0.1,0.1,0.2,0.1,0.3c0,0,0,0,0,0C18,8.5,17.9,8.4,17.9,8.3z"/>
	<path d="M17.6,6.6c-0.1-0.2-0.3-0.4-0.4-0.6l0.1-0.1c0,0,0,0,0-0.1l0.1-0.3l0,0C17.3,5.3,17,5,16.8,4.7l-0.5-0.5
		c-1.2-1.1-2.7-1.7-4.3-1.6C10.6,2.7,9.4,3.2,8.4,4C8.1,4.2,7.9,4.5,7.7,4.7C7.6,4.9,7.4,5.1,7.3,5.3C7.3,5.4,7.2,5.5,7.2,5.5
		c0,0,0,0.1-0.1,0.1l0,0.1C7.2,5.9,7.4,6,7.6,6.2c0.1,0.1,0.2,0.2,0.3,0.3C8,6.4,8,6.3,8.1,6.2c0,0-0.1-0.1-0.1-0.1
		C7.8,6.1,7.7,6.1,7.7,6C7.5,6,7.4,5.8,7.3,5.6c0-0.1,0.2-0.2,0.2-0.3c0.3-0.4,0.7-0.8,1.1-1.2c1.2-1,2.8-1.4,4.3-1.2
		c1.3,0.2,2.5,0.8,3.4,1.8c0.2,0.2,0.4,0.5,0.6,0.7c0,0,0.1,0.2,0.1,0.2c-0.1,0.3-0.3,0.4-0.5,0.5c-0.1,0-0.1,0-0.2,0.1l0,0
		c0,0,0,0,0,0c-0.1,0-0.1,0-0.1,0c0.3,0.8,0.5,1.4,0.5,1.4c0.5,0.1,0.8,0.4,1,0.6C17.9,8.4,18,8.5,18,8.6c0,0,0,0,0,0
		c0.1,0.5,0.1,1.9,0.1,1.9l0.3,0.1l0.3,0C18.9,9.4,17.8,7,17.6,6.6z"/>
</g>
</svg>
