<?xml version="1.0" encoding="utf-8"?>
<!-- Generator: Adobe Illustrator 23.0.5, SVG Export Plug-In . SVG Version: 6.00 Build 0)  -->
<svg version="1.1" id="Capa_1" xmlns:serif="http://www.serif.com/"
	 xmlns="http://www.w3.org/2000/svg" xmlns:xlink="http://www.w3.org/1999/xlink" x="0px" y="0px" viewBox="0 0 24 24"
	 style="enable-background:new 0 0 24 24;" xml:space="preserve">
<style type="text/css">
	.st0{fill:#393E41;}
	.st1{fill:#E8E8E8;}
	.st2{fill:#0A0909;}
	.st3{fill:none;}
	.st4{fill:#9B9A9A;}
	.st5{fill:#FFFFFF;}
</style>
<g transform="matrix(0.666667,0,0,0.666667,0,0)">
	<path class="st0" d="M17.6,31L17.6,31l0.7-0.1l0.1,0c0,0,0,0.1,0,0.1c0,0.1,0,0.1,0,0.2l-0.8,0L17.6,31z"/>
</g>
<g transform="matrix(0.666667,0,0,0.666667,3.62451,2.34931)">
	<path class="st1" d="M-0.9,24.5c-0.2-0.2-0.3-0.5-0.5-0.7c-0.3-0.4-0.5-0.8-0.7-1.3c-0.4-0.7-0.7-1.4-0.9-2.2
		c-0.4-1.1-0.6-2.3-0.8-3.5C-3.9,16.1-4,15.3-4,14.6c0-0.7,0.1-1.3,0.1-2c0.3-2.7,1.3-5.2,2.8-7.4c0.2-0.3,0.4-0.6,0.6-0.9
		c0.9-1.2,2-2.2,3.1-3.1c1.7-1.3,3.6-2.3,5.6-2.9c2.2-0.6,4.5-0.7,6.7-0.4C15.6-2.1,16.3-2,17-1.8c3.2,0.8,6.1,2.6,8.3,5.1
		c0.3,0.3,0.5,0.6,0.7,0.9c1,1.3,1.9,2.8,2.5,4.4c0.3,0.8,0.5,1.6,0.7,2.4c0.2,0.7,0.3,1.4,0.4,2.2c0.1,1.2,0.1,2.5-0.1,3.7
		c-0.3,2.2-1.1,4.3-2.1,6.3c-0.3,0.6-0.7,1.3-1.1,1.8c-0.2,0.3-0.5,0.6-0.7,0.9c-1.1,1.3-2.4,2.4-3.9,3.4c-0.6,0.4-1.1,0.7-1.7,0.9
		c-1.1,0.5-2.3,0.9-3.5,1.2c-1.5,0.3-3.2,0.4-4.7,0.3c-0.9-0.1-1.8-0.2-2.6-0.4c-2.5-0.6-4.9-1.8-6.9-3.4c-0.4-0.3-0.8-0.7-1.2-1.1
		C0.3,26.1-0.4,25.3-0.9,24.5z"/>
</g>
<g transform="matrix(0.604344,0,0,0.604344,27.5508,26.3526)">
	<path d="M-39.2-13.7c-0.2-0.2-0.3-0.5-0.5-0.7c-0.3-0.4-0.5-0.8-0.7-1.3c-0.4-0.7-0.7-1.4-0.9-2.2c-0.4-1.1-0.6-2.3-0.8-3.5
		c-0.1-0.8-0.2-1.5-0.2-2.3c0-0.7,0.1-1.3,0.1-2c0.3-2.7,1.3-5.2,2.8-7.4c0.2-0.3,0.4-0.6,0.6-0.9c0.9-1.2,2-2.2,3.1-3.1
		c1.7-1.3,3.6-2.3,5.6-2.9c2.2-0.6,4.5-0.7,6.7-0.4c0.7,0.1,1.4,0.2,2.1,0.4c3.2,0.8,6.1,2.6,8.3,5.1c0.3,0.3,0.5,0.6,0.7,0.9
		c1,1.3,1.9,2.8,2.5,4.4c0.3,0.8,0.5,1.6,0.7,2.4c0.2,0.7,0.3,1.4,0.4,2.2c0.1,1.2,0.1,2.5-0.1,3.7c-0.3,2.2-1.1,4.3-2.1,6.3
		c-0.3,0.6-0.7,1.3-1.1,1.8c-0.2,0.3-0.5,0.6-0.7,0.9c-1.1,1.3-2.4,2.4-3.9,3.4c-0.6,0.4-1.1,0.7-1.7,0.9c-1.1,0.5-2.3,0.9-3.5,1.2
		c-1.5,0.3-3.2,0.4-4.7,0.3c-0.9-0.1-1.8-0.2-2.6-0.4c-2.5-0.6-4.9-1.8-6.9-3.4c-0.4-0.3-0.8-0.7-1.2-1.1
		C-38-12.1-38.7-12.9-39.2-13.7z"/>
</g>
<g>
	<path class="st2" d="M17.9,8.3c0,0.1,0.1,0.2,0.1,0.3c0,0,0,0,0,0C18,8.5,17.9,8.4,17.9,8.3z"/>
	<path d="M17.6,6.6c-0.1-0.2-0.3-0.4-0.4-0.6l0.1-0.1c0,0,0,0,0-0.1l0.1-0.3l0,0C17.3,5.3,17,5,16.8,4.7l-0.5-0.5
		c-1.2-1.1-2.7-1.7-4.3-1.6C10.6,2.7,9.4,3.2,8.4,4C8.1,4.2,7.9,4.5,7.7,4.7C7.6,4.9,7.4,5.1,7.3,5.3C7.3,5.4,7.2,5.5,7.2,5.5
		c0,0,0,0.1-0.1,0.1l0,0.1C7.2,5.9,7.4,6,7.6,6.2c0.1,0.1,0.2,0.2,0.3,0.3C8,6.4,8,6.3,8.1,6.2c0,0-0.1-0.1-0.1-0.1
		C7.8,6.1,7.7,6.1,7.7,6C7.5,6,7.4,5.8,7.3,5.6c0-0.1,0.2-0.2,0.2-0.3c0.3-0.4,0.7-0.8,1.1-1.2c1.2-1,2.8-1.4,4.3-1.2
		c1.3,0.2,2.5,0.8,3.4,1.8c0.2,0.2,0.4,0.5,0.6,0.7c0,0,0.1,0.2,0.1,0.2c-0.1,0.3-0.3,0.4-0.5,0.5c-0.1,0-0.1,0-0.2,0.1l0,0
		c0,0,0,0,0,0c-0.1,0-0.1,0-0.1,0c0.3,0.8,0.5,1.4,0.5,1.4c0.5,0.1,0.8,0.4,1,0.6C17.9,8.4,18,8.5,18,8.6c0,0,0,0,0,0
		c0.1,0.5,0.1,1.9,0.1,1.9l0.3,0.1l0.3,0C18.9,9.4,17.8,7,17.6,6.6z"/>
</g>
<g>
	<path class="st3" d="M16.7,7.9c0-0.1,0-0.2,0-0.2C16.7,7.7,16.7,7.8,16.7,7.9z"/>
	<path class="st3" d="M7.8,16.1c-0.2-0.1-0.5,0.1-0.5,0.3c0,0.2,0.3,0.4,0.5,0.2C8,16.6,8,16.2,7.8,16.1z"/>
	<path class="st3" d="M16,7.9C16,8,16,8,16.1,8.1C16,8,16,8,16,7.9C16,7.8,16,7.8,16,7.9C16,7.8,16,7.8,16,7.9z"/>
	<path class="st3" d="M16.5,7.5c0.1,0,0.2,0.1,0.2,0.2C16.6,7.6,16.6,7.5,16.5,7.5c-0.1,0-0.2,0-0.3,0C16.3,7.4,16.4,7.4,16.5,7.5z"
		/>
	<path class="st3" d="M16.3,8.2c-0.1,0-0.1,0-0.2-0.1C16.1,8.1,16.2,8.2,16.3,8.2z"/>
	<path class="st3" d="M16.7,7.9C16.7,8,16.7,8,16.7,7.9C16.7,8,16.7,8,16.7,7.9z"/>
	<path class="st3" d="M16.6,8.1c-0.1,0-0.1,0.1-0.2,0.1C16.5,8.2,16.5,8.1,16.6,8.1z"/>
	<path class="st1" d="M15.2,8.2c0.1,0,0.2,0,0.3,0c-0.1,0.1-0.2,0.2-0.2,0.3c-0.7,0.7-1.3,1.3-2,2c0.2,0.1,0.4,0.3,0.5,0.4
		c0.6-0.6,1.2-1.2,1.8-1.8c0.1-0.1,0.2-0.3,0.4-0.3c-0.1,1.2-0.2,2.4-0.3,3.6l0,0c0.2,0.3,0.3,0.6,0.6,0.9c0.1-1.5,0.2-3,0.3-4.5
		c0.3-0.1,0.6-0.4,0.7-0.7c0.1-0.4,0-0.8-0.3-1.1c-0.3-0.3-0.8-0.3-1.1-0.1c-0.3,0.1-0.4,0.4-0.5,0.6c-1.5,0.1-3,0.2-4.5,0.4
		c0.2,0.2,0.5,0.4,0.7,0.6C12.8,8.4,14,8.3,15.2,8.2z M16,7.6C16,7.6,16,7.6,16,7.6c0-0.1,0.1-0.1,0.1-0.1c0,0,0.1,0,0.1-0.1
		c0.1,0,0.2-0.1,0.3,0c0.1,0,0.2,0.1,0.2,0.2c0,0.1,0,0.2,0,0.2c0,0,0,0,0,0c0,0,0,0.1,0,0.1c0,0,0,0.1-0.1,0.1
		c-0.1,0-0.1,0.1-0.2,0.1c0,0-0.1,0-0.2,0c-0.1,0-0.1,0-0.2-0.1C16,8,16,8,16,7.9c0,0,0,0,0-0.1C16,7.7,16,7.7,16,7.6z"/>
	<path class="st1" d="M9.4,7C9.3,6.9,9.1,6.8,9,6.6C9,6.5,9,6.4,9.1,6.3C8.9,6.1,8.8,5.9,8.6,5.8c-0.1,0.1-0.3,0.1-0.4,0
		C7.8,5.5,7.6,5.2,7.3,4.9C7.2,4.9,7.1,4.8,7,4.8c-0.2,0-0.4,0.3-0.3,0.5C6.7,5.4,6.9,5.5,7,5.7c3.5,3.5,7,7,10.5,10.5
		c0.3,0,0.7,0,1-0.1C15.4,13.1,12.4,10,9.4,7z"/>
	<path class="st4" d="M18.7,17.4c0.2,0.1,0.5-0.1,0.5-0.3c0,0,0,0,0-0.1c-0.2,0.1-0.5,0.1-0.7,0.2C18.5,17.3,18.6,17.4,18.7,17.4z"
		/>
	<path d="M16.1,8.1c0,0,0.1,0.1,0.2,0.1c0,0,0.1,0,0.2,0c0.1,0,0.1,0,0.2-0.1c0,0,0,0,0.1-0.1c0,0,0-0.1,0-0.1c0,0,0,0,0,0
		c0-0.1,0-0.2,0-0.2c0-0.1-0.1-0.2-0.2-0.2c-0.1,0-0.2,0-0.3,0c0,0-0.1,0-0.1,0.1s0,0-0.1,0.1c0,0,0,0,0,0c0,0.1-0.1,0.1,0,0.2
		c0,0,0,0,0,0.1C16,8,16,8,16.1,8.1z"/>
	<path class="st5" d="M16.1,7.5C16.1,7.5,16.1,7.6,16.1,7.5C16.1,7.6,16.1,7.5,16.1,7.5z"/>
	<path class="st5" d="M16.1,7.5C16.1,7.5,16.2,7.5,16.1,7.5C16.2,7.5,16.1,7.5,16.1,7.5z"/>
	<path class="st5" d="M16,7.8c0-0.1,0-0.1,0-0.2C16,7.7,16,7.7,16,7.8z"/>
	<path class="st1" d="M7.9,14.1c-0.3,0.3-0.7,0.7-1,1c-0.2,0.2-0.3,0.3-0.4,0.5c-0.2,0.4-0.2,1,0.1,1.4c0.3,0.4,0.8,0.7,1.3,0.6
		c0.3,0,0.7-0.2,0.9-0.5c0.4-0.4,0.7-0.7,1.1-1.1C9.2,15.6,8.5,14.9,7.9,14.1z M7.8,16.7c-0.2,0.2-0.5,0-0.5-0.2
		c0-0.2,0.2-0.4,0.5-0.3C8,16.2,8,16.6,7.8,16.7z"/>
	<path class="st1" d="M6.9,18.1c0,0.3,0,0.6,0,0.8c0.7,0,1.3,0,2,0c0-0.3,0-0.6,0-0.9C8.3,18.4,7.5,18.5,6.9,18.1z"/>
	<g>
		<path class="st5" d="M13.6,17.2c0.1,0,0.2,0.1,0.3,0.1c0.1,0.1,0.1,0.2,0.1,0.3c0.2,0,0.5,0.1,0.7,0.1c0-0.2,0.2-0.3,0.4-0.3
			c0.2,0,0.3,0,0.5,0c-2-0.1-3.8-0.8-5.3-1.9C11.3,16.3,12.4,16.9,13.6,17.2z"/>
		<path class="st5" d="M6.7,6.3c-0.2,1.1-0.2,2.3,0,3.4l1.2-0.1c1.2,3.6,4.6,6.3,8.6,6.6C13.3,12.9,10,9.6,6.7,6.3z"/>
	</g>
	<path class="st4" d="M7.1,11c-0.1-0.4-0.2-0.9-0.3-1.3l0,0c0.4,2.4,1.7,4.4,3.6,5.8c-0.3-0.3-0.6-0.5-0.9-0.8
		C8.3,13.7,7.5,12.4,7.1,11z"/>
	<path class="st1" d="M18.9,16.6c-0.2-0.2-0.3-0.3-0.5-0.5c-0.3,0-0.6,0.1-1,0.1c0.3,0.3,0.6,0.6,0.9,0.9c0.1,0.1,0.1,0.1,0.2,0.2
		c0.2-0.1,0.5-0.1,0.7-0.2C19.2,16.8,19,16.7,18.9,16.6z"/>
	<path class="st1" d="M17.7,17.4c-0.4-0.4-0.8-0.8-1.2-1.2c-4.1-0.2-7.4-2.9-8.6-6.6L6.7,9.7c0.1,0.4,0.2,0.9,0.3,1.3
		c0.5,1.4,1.3,2.7,2.3,3.7c0.3,0.3,0.6,0.6,0.9,0.8c1.5,1.1,3.3,1.8,5.3,1.9C16.3,17.5,17,17.5,17.7,17.4z"/>
</g>
</svg>
