<?xml version="1.0" encoding="utf-8"?>
<!-- Generator: Adobe Illustrator 23.0.5, SVG Export Plug-In . SVG Version: 6.00 Build 0)  -->
<svg version="1.1" id="Capa_1" xmlns:serif="http://www.serif.com/"
	 xmlns="http://www.w3.org/2000/svg" xmlns:xlink="http://www.w3.org/1999/xlink" x="0px" y="0px" viewBox="0 0 24 24"
	 style="enable-background:new 0 0 24 24;" xml:space="preserve">
<style type="text/css">
	.st0{fill:#393E41;}
	.st1{fill:#E8E8E8;}
	.st2{fill:#0A0909;}
	.st3{fill:#FFFFFF;}
</style>
<g transform="matrix(0.666667,0,0,0.666667,0,0)">
	<path class="st0" d="M17.6,31L17.6,31l0.7-0.1l0.1,0c0,0,0,0.1,0,0.1c0,0.1,0,0.1,0,0.2l-0.8,0L17.6,31z"/>
</g>
<g transform="matrix(0.666667,0,0,0.666667,3.62451,2.34931)">
	<path class="st1" d="M-0.9,24.5c-0.2-0.2-0.3-0.5-0.5-0.7c-0.3-0.4-0.5-0.8-0.7-1.3c-0.4-0.7-0.7-1.4-0.9-2.2
		c-0.4-1.1-0.6-2.3-0.8-3.5C-3.9,16.1-4,15.3-4,14.6c0-0.7,0.1-1.3,0.1-2c0.3-2.7,1.3-5.2,2.8-7.4c0.2-0.3,0.4-0.6,0.6-0.9
		c0.9-1.2,2-2.2,3.1-3.1c1.7-1.3,3.6-2.3,5.6-2.9c2.2-0.6,4.5-0.7,6.7-0.4C15.6-2.1,16.3-2,17-1.8c3.2,0.8,6.1,2.6,8.3,5.1
		c0.3,0.3,0.5,0.6,0.7,0.9c1,1.3,1.9,2.8,2.5,4.4c0.3,0.8,0.5,1.6,0.7,2.4c0.2,0.7,0.3,1.4,0.4,2.2c0.1,1.2,0.1,2.5-0.1,3.7
		c-0.3,2.2-1.1,4.3-2.1,6.3c-0.3,0.6-0.7,1.3-1.1,1.8c-0.2,0.3-0.5,0.6-0.7,0.9c-1.1,1.3-2.4,2.4-3.9,3.4c-0.6,0.4-1.1,0.7-1.7,0.9
		c-1.1,0.5-2.3,0.9-3.5,1.2c-1.5,0.3-3.2,0.4-4.7,0.3c-0.9-0.1-1.8-0.2-2.6-0.4c-2.5-0.6-4.9-1.8-6.9-3.4c-0.4-0.3-0.8-0.7-1.2-1.1
		C0.3,26.1-0.4,25.3-0.9,24.5z"/>
</g>
<g transform="matrix(0.604344,0,0,0.604344,27.5508,26.3526)">
	<path d="M-39.2-13.7c-0.2-0.2-0.3-0.5-0.5-0.7c-0.3-0.4-0.5-0.8-0.7-1.3c-0.4-0.7-0.7-1.4-0.9-2.2c-0.4-1.1-0.6-2.3-0.8-3.5
		c-0.1-0.8-0.2-1.5-0.2-2.3c0-0.7,0.1-1.3,0.1-2c0.3-2.7,1.3-5.2,2.8-7.4c0.2-0.3,0.4-0.6,0.6-0.9c0.9-1.2,2-2.2,3.1-3.1
		c1.7-1.3,3.6-2.3,5.6-2.9c2.2-0.6,4.5-0.7,6.7-0.4c0.7,0.1,1.4,0.2,2.1,0.4c3.2,0.8,6.1,2.6,8.3,5.1c0.3,0.3,0.5,0.6,0.7,0.9
		c1,1.3,1.9,2.8,2.5,4.4c0.3,0.8,0.5,1.6,0.7,2.4c0.2,0.7,0.3,1.4,0.4,2.2c0.1,1.2,0.1,2.5-0.1,3.7c-0.3,2.2-1.1,4.3-2.1,6.3
		c-0.3,0.6-0.7,1.3-1.1,1.8c-0.2,0.3-0.5,0.6-0.7,0.9c-1.1,1.3-2.4,2.4-3.9,3.4c-0.6,0.4-1.1,0.7-1.7,0.9c-1.1,0.5-2.3,0.9-3.5,1.2
		c-1.5,0.3-3.2,0.4-4.7,0.3c-0.9-0.1-1.8-0.2-2.6-0.4c-2.5-0.6-4.9-1.8-6.9-3.4c-0.4-0.3-0.8-0.7-1.2-1.1
		C-38-12.1-38.7-12.9-39.2-13.7z"/>
</g>
<g transform="matrix(0.666667,0,0,0.666667,0,0)">
	<path class="st2" d="M23.4,7.8c0.1-0.1,0.1-0.2,0.2-0.3l0.3,0.2c-0.1,0.1-0.2,0.2-0.3,0.3C23.5,8,23.4,7.9,23.4,7.8z"/>
</g>
<g transform="matrix(0.666667,0,0,0.666667,0,0)">
	<path d="M13,7.6l0.4-0.3c0.2-0.2,0.5-0.4,0.7-0.6c1.4-1,3.2-1.5,4.9-1.3c0.5,0,1,0.1,1.5,0.3C21.4,5.9,22.2,6.4,23,7
		c0.2,0.2,0.4,0.3,0.6,0.5c-0.1,0.1-0.1,0.2-0.2,0.3c0-0.1-0.2-0.3-0.3-0.3c-1.5-1.2-3.5-2-5.4-1.8c-1.4,0.1-2.8,0.7-3.9,1.6
		c-0.2,0.1-0.4,0.3-0.5,0.5l0,0.1C13.1,7.7,13.1,7.6,13,7.6z"/>
</g>
<path d="M22.3,11.2c0-0.4-0.1-0.9-0.2-1.3c-0.1-0.5-0.2-1-0.4-1.4c-0.4-0.9-0.9-1.9-1.5-2.7c-0.1-0.2-0.3-0.4-0.4-0.5
	c-1.3-1.5-3.1-2.6-5-3.1C14.3,2.1,13.9,2,13.4,2c-1.3-0.2-2.7-0.1-4,0.3C8.2,2.6,7,3.2,6,3.9C5.3,4.5,4.7,5.1,4.1,5.8
	C4,6,3.9,6.2,3.7,6.4c-0.9,1.3-1.5,2.9-1.7,4.5C2,11.3,2,11.7,2,12.1c0,0.5,0,0.9,0.1,1.4c0.1,0.7,0.3,1.4,0.5,2.1
	c0.2,0.5,0.4,0.9,0.6,1.3c0.1,0.3,0.3,0.5,0.4,0.8c0.1,0.1,0.2,0.3,0.3,0.4c0.3,0.4,0.6,0.8,0.9,1.1C5,18.6,5.4,18,5.9,17.6
	c1-0.8,2.4-1.1,3.5-1.7c0.4,2.1,1.1,4.3,2.6,5.9c1.5-1.6,2.2-3.8,2.6-5.9c1.2,0.6,2.6,0.9,3.6,1.8c0.5,0.5,0.9,1.1,1.1,1.8
	c0.2-0.2,0.4-0.3,0.5-0.5c0.2-0.2,0.3-0.4,0.4-0.6c0.3-0.3,0.5-0.7,0.7-1.1c0.6-1.2,1.1-2.5,1.3-3.8C22.3,12.7,22.3,11.9,22.3,11.2z
	 M12,21.1c-0.3-0.5-0.5-1-0.8-1.5c0.1-0.4,0.2-0.8,0.3-1.1c0.4,0,0.7,0,1.1,0c0.1,0.4,0.2,0.8,0.3,1.2C12.5,20.2,12.3,20.7,12,21.1z
	 M11.2,17c0.5,0,1.1,0,1.6,0c-0.1,0.4-0.2,0.8-0.2,1.2c-0.4,0-0.8,0-1.1,0C11.4,17.8,11.3,17.4,11.2,17z M15,13.3
	c-0.6,0.7-0.7,1.7-1.4,2.2c-0.9,0.8-2.3,0.8-3.2,0C9.7,15,9.5,14,9,13.3c-0.5-0.7-0.9-1.8-0.1-2.5c1.3,0.5,2.7,0.5,4,0.4
	c0.8,0,1.5-0.2,2.3-0.4c0.1,0.1,0.3,0.3,0.4,0.4C15.6,12,15.5,12.7,15,13.3z M14.7,10.6c-1.2,0.4-2.4,0.4-3.6,0.3
	c-1-0.1-2.1-0.2-2.8-1c0.2-0.2,0.3-0.4,0.5-0.5c0.1-1.2,0.7-2.2,1.7-2.8c0.2,0.7,0.2,1.5,0.6,2.1c0-0.8-0.1-1.5-0.2-2.2
	c0.2-0.1,0.4-0.1,0.6-0.2c0-0.6,0.7-0.3,1.1-0.4c0.1,0.4,0.4,0.5,0.7,0.6c0,0.7-0.3,1.5-0.2,2.2c0.3-0.7,0.4-1.4,0.5-2.1
	c0.9,0.6,1.6,1.6,1.7,2.8c0.2,0.2,0.4,0.4,0.5,0.5C15.5,10.2,15.1,10.5,14.7,10.6z"/>
<g>
	<path class="st3" d="M13.6,5.6c-0.2,0.7-0.3,1.4-0.5,2.1c-0.1-0.7,0.2-1.5,0.2-2.2c-0.3-0.2-0.7-0.2-0.7-0.6c-0.4,0-1-0.2-1.1,0.4
		c-0.2,0.1-0.4,0.1-0.6,0.2C10.9,6.2,11,7,11,7.7c-0.4-0.6-0.4-1.4-0.6-2.1C9.5,6.2,8.8,7.3,8.7,8.4C8.5,8.6,8.4,8.8,8.2,8.9
		c0.7,0.8,1.8,0.9,2.8,1c1.2,0.1,2.4,0.1,3.6-0.3c0.4-0.1,0.8-0.4,1.1-0.7c-0.2-0.2-0.4-0.4-0.5-0.5C15.2,7.3,14.5,6.2,13.6,5.6z"/>
	<path class="st3" d="M15.2,9.9c-0.7,0.3-1.5,0.4-2.3,0.4c-1.4,0-2.8,0.1-4-0.4c-0.7,0.6-0.3,1.8,0.1,2.5c0.6,0.7,0.7,1.7,1.4,2.2
		c0.9,0.8,2.3,0.8,3.2,0c0.7-0.6,0.9-1.5,1.4-2.2c0.5-0.6,0.6-1.4,0.5-2.1C15.4,10.1,15.2,10,15.2,9.9z"/>
	<path class="st3" d="M14.6,14.8c-0.4,2.1-1.1,4.3-2.6,5.9c-1.5-1.6-2.2-3.8-2.6-5.9c-1.2,0.6-2.5,0.9-3.5,1.7
		c-0.5,0.5-0.9,1-1.1,1.6c0.1,0.1,0.1,0.1,0.2,0.2c0.2,0.2,0.5,0.5,0.7,0.7c1.2,1,2.7,1.7,4.2,2.1c0.5,0.1,1,0.2,1.6,0.2
		c1,0.1,1.9,0,2.9-0.2c0.7-0.2,1.4-0.4,2.1-0.7c0.4-0.2,0.7-0.4,1.1-0.6c0.7-0.4,1.3-0.9,1.8-1.5c-0.2-0.7-0.6-1.3-1.1-1.8
		C17.1,15.7,15.8,15.5,14.6,14.8z"/>
	<path class="st3" d="M12.8,16c-0.5,0-1.1,0-1.6,0c0.1,0.4,0.2,0.8,0.2,1.2c0.4,0,0.8,0,1.1,0C12.6,16.8,12.7,16.4,12.8,16z"/>
	<path class="st3" d="M11.5,17.5c-0.1,0.4-0.2,0.8-0.3,1.1c0.2,0.5,0.5,1,0.8,1.5c0.3-0.5,0.6-1,0.8-1.5c-0.1-0.4-0.2-0.8-0.3-1.2
		C12.2,17.5,11.8,17.5,11.5,17.5z"/>
</g>
</svg>
