<?xml version="1.0" encoding="utf-8"?>
<!-- Generator: Adobe Illustrator 23.0.5, SVG Export Plug-In . SVG Version: 6.00 Build 0)  -->
<svg version="1.1" id="Capa_1" xmlns:serif="http://www.serif.com/"
	 xmlns="http://www.w3.org/2000/svg" xmlns:xlink="http://www.w3.org/1999/xlink" x="0px" y="0px" viewBox="0 0 24 24"
	 style="enable-background:new 0 0 24 24;" xml:space="preserve">
<style type="text/css">
	.st0{fill:#E8E8E8;}
	.st1{fill:#FFFFFF;}
	.st2{display:none;fill:#E8E8E8;}
	.st3{display:none;}
	.st4{display:inline;fill:#F6F7EB;}
	.st5{display:inline;fill:#D4D4D4;}
	.st6{display:inline;fill:#0A0909;}
	.st7{display:inline;}
	.st8{display:none;fill:#FFFFFF;}
</style>
<g transform="matrix(0.666667,0,0,0.666667,3.62451,2.34931)">
	<path class="st0" d="M-0.9,24.5c-0.2-0.2-0.3-0.5-0.5-0.7c-0.3-0.4-0.5-0.8-0.7-1.3c-0.4-0.7-0.7-1.4-0.9-2.2
		c-0.4-1.1-0.6-2.3-0.8-3.5C-3.9,16.1-4,15.3-4,14.6c0-0.7,0.1-1.3,0.1-2c0.3-2.7,1.3-5.2,2.8-7.4c0.2-0.3,0.4-0.6,0.6-0.9
		c0.9-1.2,2-2.2,3.1-3.1c1.7-1.3,3.6-2.3,5.6-2.9c2.2-0.6,4.5-0.7,6.7-0.4C15.6-2.1,16.3-2,17-1.8c3.2,0.8,6.1,2.6,8.3,5.1
		c0.3,0.3,0.5,0.6,0.7,0.9c1,1.3,1.9,2.8,2.5,4.4c0.3,0.8,0.5,1.6,0.7,2.4c0.2,0.7,0.3,1.4,0.4,2.2c0.1,1.2,0.1,2.5-0.1,3.7
		c-0.3,2.2-1.1,4.3-2.1,6.3c-0.3,0.6-0.7,1.3-1.1,1.8c-0.2,0.3-0.5,0.6-0.7,0.9c-1.1,1.3-2.4,2.4-3.9,3.4c-0.6,0.4-1.1,0.7-1.7,0.9
		c-1.1,0.5-2.3,0.9-3.5,1.2c-1.5,0.3-3.2,0.4-4.7,0.3c-0.9-0.1-1.8-0.2-2.6-0.4c-2.5-0.6-4.9-1.8-6.9-3.4c-0.4-0.3-0.8-0.7-1.2-1.1
		C0.3,26.1-0.4,25.3-0.9,24.5z"/>
</g>
<g transform="matrix(0.604344,0,0,0.604344,27.5508,26.3526)">
	<path d="M-39.2-14.1c-0.2-0.2-0.3-0.5-0.5-0.7c-0.3-0.4-0.5-0.8-0.7-1.3c-0.4-0.7-0.7-1.4-0.9-2.2c-0.4-1.1-0.6-2.3-0.8-3.5
		c-0.1-0.8-0.2-1.5-0.2-2.3c0-0.7,0.1-1.3,0.1-2c0.3-2.7,1.3-5.2,2.8-7.4c0.2-0.3,0.4-0.6,0.6-0.9c0.9-1.2,2-2.2,3.1-3.1
		c1.7-1.3,3.6-2.3,5.6-2.9c2.2-0.6,4.5-0.7,6.7-0.4c0.7,0.1,1.4,0.2,2.1,0.4c3.2,0.8,6.1,2.6,8.3,5.1c0.3,0.3,0.5,0.6,0.7,0.9
		c1,1.3,1.9,2.8,2.5,4.4c0.3,0.8,0.5,1.6,0.7,2.4c0.2,0.7,0.3,1.4,0.4,2.2c0.1,1.2,0.1,2.5-0.1,3.7c-0.3,2.2-1.1,4.3-2.1,6.3
		c-0.3,0.6-0.7,1.3-1.1,1.8c-0.2,0.3-0.5,0.6-0.7,0.9c-1.1,1.3-2.4,2.4-3.9,3.4c-0.6,0.4-1.1,0.7-1.7,0.9c-1.1,0.5-2.3,0.9-3.5,1.2
		c-1.5,0.3-3.2,0.4-4.7,0.3c-0.9-0.1-1.8-0.2-2.6-0.4c-2.5-0.6-4.9-1.8-6.9-3.4c-0.4-0.3-0.8-0.7-1.2-1.1
		C-38-12.5-38.7-13.3-39.2-14.1z"/>
</g>
<g transform="matrix(0.604344,0,0,0.604344,27.5508,26.3526)">
	<path d="M-39.4-13.9c-0.2-0.2-0.3-0.5-0.5-0.7c-0.3-0.4-0.5-0.8-0.7-1.3c-0.4-0.7-0.7-1.4-0.9-2.2c-0.4-1.1-0.6-2.3-0.8-3.5
		c-0.1-0.8-0.2-1.5-0.2-2.3c0-0.7,0.1-1.3,0.1-2c0.3-2.7,1.3-5.2,2.8-7.4c0.2-0.3,0.4-0.6,0.6-0.9c0.9-1.2,2-2.2,3.1-3.1
		c1.7-1.3,3.6-2.3,5.6-2.9c2.2-0.6,4.5-0.7,6.7-0.4c0.7,0.1,1.4,0.2,2.1,0.4c3.2,0.8,6.1,2.6,8.3,5.1c0.3,0.3,0.5,0.6,0.7,0.9
		c1,1.3,1.9,2.8,2.5,4.4c0.3,0.8,0.5,1.6,0.7,2.4c0.2,0.7,0.3,1.4,0.4,2.2c0.1,1.2,0.1,2.5-0.1,3.7c-0.3,2.2-1.1,4.3-2.1,6.3
		c-0.3,0.6-0.7,1.3-1.1,1.8c-0.2,0.3-0.5,0.6-0.7,0.9c-1.1,1.3-2.4,2.4-3.9,3.4c-0.6,0.4-1.1,0.7-1.7,0.9c-1.1,0.5-2.3,0.9-3.5,1.2
		c-1.5,0.3-3.2,0.4-4.7,0.3c-0.9-0.1-1.8-0.2-2.6-0.4c-2.5-0.6-4.9-1.8-6.9-3.4c-0.4-0.3-0.8-0.7-1.2-1.1
		C-38.2-12.3-38.9-13.1-39.4-13.9z"/>
</g>
<ellipse class="st1" cx="12" cy="11.9" rx="3.1" ry="3.3"/>
<path class="st2" d="M17.9,18.7c-0.1-0.1-0.3-0.2-0.4-0.3c-0.6-0.3-1.1-0.7-1.6-1.2c-0.2-0.2-0.3-0.3-0.5-0.5
	c-0.1-0.1-0.2-0.2-0.3-0.3c0,0-0.1-0.1-0.1-0.1l0,0c-0.1,0-0.3,0-0.4,0c0-0.1,0-0.2,0-0.3c0-0.3,0-0.7,0-1c0-0.1,0-0.3,0-0.4
	c0-0.1,0.1-0.2,0.2-0.2c0.1-0.1,0.1-0.2,0.2-0.2c0.1-0.1,0.2-0.3,0.2-0.4l0,0C15,13.9,15,14,14.9,14.1c-0.1,0.1-0.1,0.2-0.2,0.2
	c-0.1,0.1-0.1,0.1-0.2,0.2c0,0-0.1,0-0.1,0c-0.1,0-0.2,0.1-0.2,0.2c-0.2,0.2-0.4,0.3-0.6,0.4c-0.7,0.4-1.5,0.5-2.3,0.2
	c-0.3-0.1-0.5-0.3-0.8-0.5c-0.1-0.1-0.2-0.1-0.3-0.2c-0.1-0.1-0.1-0.1-0.2-0.2l0,0l0,0.4c0,0.3,0,0.6-0.1,0.9c0,0.1,0,0.3,0,0.5
	c-0.1,0-0.4,0-0.5,0c-0.1,0.1-0.2,0.2-0.3,0.3C9,16.8,8.9,16.9,8.8,17c-0.2,0.2-0.4,0.3-0.5,0.5c-0.3,0.3-0.7,0.5-1,0.7
	c-0.1,0.1-0.2,0.2-0.4,0.2c-0.1,0.1-0.2,0.1-0.3,0.2c0,0-0.1,0-0.1,0.1l0,0c-0.1,0-0.1,0.1-0.2,0.1C6,19,5.8,19.1,5.7,19.2
	c0.1,0.1,0.2,0.2,0.3,0.3c0.4,0.4,0.9,0.7,1.4,0.9c0.4,0.2,0.8,0.5,1.3,0.6c1.5,0.6,3.1,0.8,4.7,0.6c0.6-0.1,1.1-0.2,1.7-0.3
	c0.9-0.3,1.9-0.8,2.7-1.3c0.3-0.2,0.7-0.5,1-0.8L18,18.8"/>
<g transform="matrix(0.666667,0,0,0.666667,0,0)" class="st3">
	<path class="st4" d="M15,21.9L15,21.9c0.2,0,0.3,0.2,0.4,0.3c0.1,0.1,0.3,0.2,0.4,0.3c0.4,0.3,0.8,0.5,1.2,0.7
		c1.1,0.5,2.3,0.3,3.4-0.3c0.3-0.2,0.7-0.4,1-0.6c0.1-0.1,0.2-0.2,0.3-0.3c0,0,0.1,0,0.1,0c0,0.2,0,0.5,0,0.7c0,0.5,0,1,0.1,1.5
		c0,0.1,0,0.3,0,0.5c0,0.1,0,0.3,0.1,0.4c0,0.1,0.1,0.2,0.1,0.3c-0.8,0.9-2.2,1.4-3.4,1.5c-1.1,0.1-2.2-0.2-3.1-0.7
		c-0.3-0.1-0.5-0.3-0.7-0.5c-0.1-0.1-0.1-0.1-0.2-0.2l0.2-0.7c0.1-0.2,0.1-0.5,0.1-0.7c0-0.5,0.1-0.9,0.1-1.4L15,21.9z"/>
</g>
<g transform="matrix(0.666667,0,0,0.666667,0,0)" class="st3">
	<path class="st5" d="M15,21.9L15,21.9c0.2,0,0.3,0.2,0.4,0.3c0.1,0.1,0.3,0.2,0.4,0.3c0.4,0.3,0.8,0.5,1.2,0.7
		c1.1,0.5,2.3,0.3,3.4-0.3c0.3-0.2,0.7-0.4,1-0.6c0.1-0.1,0.2-0.2,0.3-0.3c0,0,0.1,0,0.1,0c0,0.2,0,0.5,0,0.7c0,0,0-0.1,0-0.1
		c-0.2,0.1-0.3,0.3-0.5,0.4c-0.5,0.5-1.1,0.8-1.8,1.1c-0.6,0.2-1.4,0.3-2,0.1c-0.7-0.2-1.2-0.6-1.8-1c-0.1-0.1-0.3-0.2-0.4-0.3
		c-0.1-0.1-0.2-0.2-0.3-0.3l0,0L15,21.9z"/>
</g>
<g transform="matrix(0.666667,0,0,0.666667,0,0)" class="st3">
	<path class="st6" d="M23.4,7.8c0.1-0.1,0.1-0.2,0.2-0.3l0.3,0.2c-0.1,0.1-0.2,0.2-0.3,0.3C23.5,8,23.4,7.9,23.4,7.8z"/>
</g>
<g transform="matrix(0.666667,0,0,0.666667,0,0)" class="st3">
	<path class="st7" d="M13,7.6l0.4-0.3c0.2-0.2,0.5-0.4,0.7-0.6c1.4-1,3.2-1.5,4.9-1.3c0.5,0,1,0.1,1.5,0.3C21.4,5.9,22.2,6.4,23,7
		c0.2,0.2,0.4,0.3,0.6,0.5c-0.1,0.1-0.1,0.2-0.2,0.3c0-0.1-0.2-0.3-0.3-0.3c-1.5-1.2-3.5-2-5.4-1.8c-1.4,0.1-2.8,0.7-3.9,1.6
		c-0.2,0.1-0.4,0.3-0.5,0.5l0,0.1C13.1,7.7,13.1,7.6,13,7.6z"/>
</g>
<path class="st8" d="M12.5,3.8C12,3.7,11.3,3.9,10.8,4c-0.6,0.2-1.1,0.5-1.6,0.9C8.4,5.6,7.7,6.2,7.6,7.3c-0.1,1.2,0,2.5,0.3,3.7
	c0.4,1.6,1.4,3.1,2.7,4.2c1,0.7,2.3,0.6,3.3-0.1c1.1-0.7,1.6-1.7,2.1-2.9c0.7-1.7,1.1-3.7,0.6-5.5C16,5,14.2,4.1,12.5,3.8z"/>
<path class="st1" d="M19.5,8.6c0-0.3-0.2-0.6-0.5-0.8c-0.2-0.1-0.5-0.1-0.7,0c0,0,0,0,0,0l-0.6,0.3c0,0,0,0,0,0
	c-0.2,0.1-0.4,0.2-0.6,0.3c0,0,0,0,0,0l-0.6,0.3c0,0,0,0,0,0c-0.2,0.1-0.4,0.2-0.6,0.3c-0.3-0.5-0.7-0.9-1.2-1.3
	C15.2,7,15.6,6.2,16,5.4c0.1-0.3,0.1-0.6,0-0.8c-0.1-0.3-0.4-0.4-0.7-0.4c-2.1,0-4.3,0-6.4,0c-0.2,0-0.4,0.1-0.5,0.2
	C8.1,4.5,8,4.8,8,5.1c0,0.2,0.1,0.3,0.2,0.5c0.3,0.7,0.7,1.4,1,2.2C8.8,8.1,8.4,8.5,8,9C8,9,7.9,8.9,7.8,8.9l0,0L5.7,7.8
	c0,0,0,0,0,0C5.5,7.7,5.2,7.7,5,7.8C4.7,7.9,4.5,8.3,4.5,8.6c0,2.2,0,4.4,0,6.7c0,0.3,0.2,0.6,0.4,0.7c0.2,0.1,0.5,0.2,0.8,0
	c0.8-0.4,1.5-0.8,2.3-1.2c0.3,0.5,0.7,0.9,1.2,1.3c-0.4,0.8-0.8,1.6-1.1,2.4C8,18.7,8,19,8.1,19.2c0.1,0.3,0.4,0.5,0.7,0.5h6.6
	c0.4,0,0.7-0.4,0.7-0.8c0-0.3-0.1-0.5-0.2-0.7c-0.3-0.7-0.7-1.4-1-2.1c0.5-0.3,0.9-0.8,1.2-1.3c0.7,0.4,1.4,0.7,2.1,1.1
	c0.1,0.1,0.3,0.2,0.5,0.2c0.3,0,0.6-0.1,0.8-0.3c0.1-0.2,0.2-0.4,0.2-0.6C19.5,13,19.5,10.8,19.5,8.6z M8.6,5.2c0-0.1-0.1-0.2,0-0.3
	c0-0.1,0.2-0.1,0.3-0.1c2.1,0,4.2,0,6.4,0c0.1,0,0.2,0,0.3,0.1c0,0.1,0,0.2,0,0.3c-0.4,0.8-0.7,1.5-1.1,2.3
	c-0.8-0.4-1.7-0.6-2.6-0.6c-0.7,0-1.4,0.2-2,0.6C9.4,6.7,9,5.9,8.6,5.2z M5.5,15.5c-0.2,0.1-0.4,0-0.4-0.2c0-2.2,0-4.4,0-6.6
	c0-0.1,0.1-0.2,0.2-0.3c0.1,0,0.2,0,0.2,0C6.2,8.8,7,9.1,7.7,9.5c-0.5,0.9-0.7,1.9-0.6,2.9c0.1,0.7,0.3,1.3,0.6,1.9
	C7,14.7,6.2,15.1,5.5,15.5z M15.4,18.6c0,0.1,0.1,0.2,0.1,0.3c0,0.1-0.2,0.2-0.3,0.2c-2.1,0-4.2,0-6.4,0c-0.1,0-0.2-0.1-0.3-0.2
	c0-0.1,0-0.2,0.1-0.3c0.4-0.7,0.7-1.5,1.1-2.2c0.7,0.4,1.6,0.6,2.4,0.6c0.8,0,1.5-0.2,2.2-0.6C14.7,17.1,15.1,17.8,15.4,18.6z
	 M16,13.7c-0.4,0.9-1,1.7-1.9,2.1c-0.9,0.5-1.9,0.7-2.9,0.5c-0.9-0.2-1.8-0.7-2.5-1.5c-0.6-0.8-1-1.8-1-2.8c0-1,0.3-2.1,0.9-2.9
	c0.7-1,1.9-1.6,3.1-1.7c1-0.1,2,0.2,2.8,0.9c0.8,0.6,1.4,1.5,1.6,2.5C16.5,11.8,16.4,12.8,16,13.7z M18.8,15.5c-0.1,0-0.2,0-0.3-0.1
	c-0.7-0.4-1.4-0.7-2.1-1.1c0.4-0.8,0.6-1.6,0.6-2.5c0-0.8-0.2-1.6-0.6-2.3c0.7-0.4,1.5-0.8,2.2-1.2c0.2-0.1,0.4,0,0.4,0.2
	c0,2.2,0,4.4,0,6.6C19,15.3,18.9,15.4,18.8,15.5z"/>
<path class="st1" d="M14,9c-0.7-0.5-1.5-0.7-2.3-0.6C11,8.4,10.4,8.7,9.8,9.2c-0.6,0.6-1.1,1.4-1.2,2.2c-0.1,0.8,0.1,1.7,0.5,2.4
	c0.4,0.7,1.1,1.2,1.8,1.5c0.8,0.3,1.8,0.2,2.5-0.2c0.7-0.3,1.3-0.9,1.6-1.6c0.4-0.8,0.5-1.7,0.3-2.5C15.2,10.2,14.7,9.5,14,9z
	 M14.9,12.5c-0.1,0.7-0.5,1.3-1.1,1.8c-0.4,0.3-1,0.6-1.5,0.6c-0.6,0.1-1.3-0.1-1.8-0.4C10,14.1,9.6,13.6,9.3,13
	c-0.2-0.6-0.2-1.3-0.1-1.9c0.1-0.5,0.4-1,0.8-1.4c0.4-0.4,1-0.7,1.5-0.7c0.6-0.1,1.2,0,1.7,0.3c0.6,0.3,1,0.8,1.3,1.4
	C14.9,11.2,15,11.9,14.9,12.5z"/>
</svg>
