<?xml version="1.0" encoding="utf-8"?>
<!-- Generator: Adobe Illustrator 23.0.5, SVG Export Plug-In . SVG Version: 6.00 Build 0)  -->
<svg version="1.1" id="Capa_1" xmlns:serif="http://www.serif.com/"
	 xmlns="http://www.w3.org/2000/svg" xmlns:xlink="http://www.w3.org/1999/xlink" x="0px" y="0px" viewBox="0 0 24 24"
	 style="enable-background:new 0 0 24 24;" xml:space="preserve">
<style type="text/css">
	.st0{fill:#393E41;}
	.st1{fill:#E8E8E8;}
	.st2{fill:#0A0909;}
	.st3{fill:#FFFFFF;}
</style>
<g transform="matrix(0.666667,0,0,0.666667,0,0)">
	<path class="st0" d="M17.6,31L17.6,31l0.7-0.1l0.1,0c0,0,0,0.1,0,0.1c0,0.1,0,0.1,0,0.2l-0.8,0L17.6,31z"/>
</g>
<g transform="matrix(0.666667,0,0,0.666667,3.62451,2.34931)">
	<path class="st1" d="M-0.9,24.5c-0.2-0.2-0.3-0.5-0.5-0.7c-0.3-0.4-0.5-0.8-0.7-1.3c-0.4-0.7-0.7-1.4-0.9-2.2
		c-0.4-1.1-0.6-2.3-0.8-3.5C-3.9,16.1-4,15.3-4,14.6c0-0.7,0.1-1.3,0.1-2c0.3-2.7,1.3-5.2,2.8-7.4c0.2-0.3,0.4-0.6,0.6-0.9
		c0.9-1.2,2-2.2,3.1-3.1c1.7-1.3,3.6-2.3,5.6-2.9c2.2-0.6,4.5-0.7,6.7-0.4C15.6-2.1,16.3-2,17-1.8c3.2,0.8,6.1,2.6,8.3,5.1
		c0.3,0.3,0.5,0.6,0.7,0.9c1,1.3,1.9,2.8,2.5,4.4c0.3,0.8,0.5,1.6,0.7,2.4c0.2,0.7,0.3,1.4,0.4,2.2c0.1,1.2,0.1,2.5-0.1,3.7
		c-0.3,2.2-1.1,4.3-2.1,6.3c-0.3,0.6-0.7,1.3-1.1,1.8c-0.2,0.3-0.5,0.6-0.7,0.9c-1.1,1.3-2.4,2.4-3.9,3.4c-0.6,0.4-1.1,0.7-1.7,0.9
		c-1.1,0.5-2.3,0.9-3.5,1.2c-1.5,0.3-3.2,0.4-4.7,0.3c-0.9-0.1-1.8-0.2-2.6-0.4c-2.5-0.6-4.9-1.8-6.9-3.4c-0.4-0.3-0.8-0.7-1.2-1.1
		C0.3,26.1-0.4,25.3-0.9,24.5z"/>
</g>
<g transform="matrix(0.604344,0,0,0.604344,27.5508,26.3526)">
	<path d="M-39.2-13.7c-0.2-0.2-0.3-0.5-0.5-0.7c-0.3-0.4-0.5-0.8-0.7-1.3c-0.4-0.7-0.7-1.4-0.9-2.2c-0.4-1.1-0.6-2.3-0.8-3.5
		c-0.1-0.8-0.2-1.5-0.2-2.3c0-0.7,0.1-1.3,0.1-2c0.3-2.7,1.3-5.2,2.8-7.4c0.2-0.3,0.4-0.6,0.6-0.9c0.9-1.2,2-2.2,3.1-3.1
		c1.7-1.3,3.6-2.3,5.6-2.9c2.2-0.6,4.5-0.7,6.7-0.4c0.7,0.1,1.4,0.2,2.1,0.4c3.2,0.8,6.1,2.6,8.3,5.1c0.3,0.3,0.5,0.6,0.7,0.9
		c1,1.3,1.9,2.8,2.5,4.4c0.3,0.8,0.5,1.6,0.7,2.4c0.2,0.7,0.3,1.4,0.4,2.2c0.1,1.2,0.1,2.5-0.1,3.7c-0.3,2.2-1.1,4.3-2.1,6.3
		c-0.3,0.6-0.7,1.3-1.1,1.8c-0.2,0.3-0.5,0.6-0.7,0.9c-1.1,1.3-2.4,2.4-3.9,3.4c-0.6,0.4-1.1,0.7-1.7,0.9c-1.1,0.5-2.3,0.9-3.5,1.2
		c-1.5,0.3-3.2,0.4-4.7,0.3c-0.9-0.1-1.8-0.2-2.6-0.4c-2.5-0.6-4.9-1.8-6.9-3.4c-0.4-0.3-0.8-0.7-1.2-1.1
		C-38-12.1-38.7-12.9-39.2-13.7z"/>
</g>
<g>
	<path class="st2" d="M17.9,8.3c0,0.1,0.1,0.2,0.1,0.3c0,0,0,0,0,0C18,8.5,17.9,8.4,17.9,8.3z"/>
	<path d="M17.6,6.6c-0.1-0.2-0.3-0.4-0.4-0.6l0.1-0.1c0,0,0,0,0-0.1l0.1-0.3l0,0C17.3,5.3,17,5,16.8,4.7l-0.5-0.5
		c-1.2-1.1-2.7-1.7-4.3-1.6C10.6,2.7,9.4,3.2,8.4,4C8.1,4.2,7.9,4.5,7.7,4.7C7.6,4.9,7.4,5.1,7.3,5.3C7.3,5.4,7.2,5.5,7.2,5.5
		c0,0,0,0.1-0.1,0.1l0,0.1C7.2,5.9,7.4,6,7.6,6.2c0.1,0.1,0.2,0.2,0.3,0.3C8,6.4,8,6.3,8.1,6.2c0,0-0.1-0.1-0.1-0.1
		C7.8,6.1,7.7,6.1,7.7,6C7.5,6,7.4,5.8,7.3,5.6c0-0.1,0.2-0.2,0.2-0.3c0.3-0.4,0.7-0.8,1.1-1.2c1.2-1,2.8-1.4,4.3-1.2
		c1.3,0.2,2.5,0.8,3.4,1.8c0.2,0.2,0.4,0.5,0.6,0.7c0,0,0.1,0.2,0.1,0.2c-0.1,0.3-0.3,0.4-0.5,0.5c-0.1,0-0.1,0-0.2,0.1l0,0
		c0,0,0,0,0,0c-0.1,0-0.1,0-0.1,0c0.3,0.8,0.5,1.4,0.5,1.4c0.5,0.1,0.8,0.4,1,0.6C17.9,8.4,18,8.5,18,8.6c0,0,0,0,0,0
		c0.1,0.5,0.1,1.9,0.1,1.9l0.3,0.1l0.3,0C18.9,9.4,17.8,7,17.6,6.6z"/>
</g>
<g>
	<g>
		<path class="st3" d="M5.6,7.9c0.1,0,0.3,0,0.4,0C6.1,8,6.2,8,6.3,8.1c1.9,1.1,3.7,2.2,5.6,3.3c0.2,0.1,0.3,0.2,0.4,0.4
			c0.1,0.3,0.1,0.6,0,0.8c-0.1,0.2-0.2,0.3-0.3,0.4C10,14.2,8,15.3,6.1,16.5c-0.2,0.1-0.5,0.2-0.7,0c-0.3-0.1-0.5-0.5-0.5-0.8
			c0-2.3,0-4.5,0-6.8c0-0.2,0.1-0.4,0.2-0.6C5.2,8.1,5.4,8,5.6,7.9z"/>
	</g>
	<path class="st1" d="M18.6,16.5h-1.2c-0.2,0-0.5-0.2-0.5-0.5V8.2c0-0.2,0.2-0.5,0.5-0.5h1.2c0.2,0,0.5,0.2,0.5,0.5V16
		C19.1,16.2,18.9,16.5,18.6,16.5z"/>
	<path class="st1" d="M15.6,16.5h-1.2c-0.2,0-0.5-0.2-0.5-0.5V8.2c0-0.2,0.2-0.5,0.5-0.5h1.2c0.2,0,0.5,0.2,0.5,0.5V16
		C16,16.2,15.8,16.5,15.6,16.5z"/>
</g>
</svg>
